<mxfile host="app.diagrams.net" modified="2023-11-01T01:13:47.268Z" agent="Mozilla/5.0 (Macintosh; Intel Mac OS X 10_15_7) AppleWebKit/605.1.15 (KHTML, like Gecko) Version/15.4 Safari/605.1.15" etag="hm0Q6ifhQACwBeySt2l-" version="22.0.8" type="device">
  <diagram name="Страница — 1" id="9udpQ28yrxLd-hS_7W5E">
    <mxGraphModel dx="1026" dy="692" grid="0" gridSize="10" guides="1" tooltips="1" connect="1" arrows="1" fold="1" page="1" pageScale="1" pageWidth="3700" pageHeight="4681" math="0" shadow="0">
      <root>
        <mxCell id="0" />
        <mxCell id="1" parent="0" />
        <mxCell id="1RQeHupGN9nbwRqFfmEi-1" value="Data Producer" style="shape=umlActor;verticalLabelPosition=bottom;verticalAlign=top;html=1;labelBackgroundColor=none;fillColor=#A8DADC;strokeColor=#457B9D;fontColor=#1D3557;" vertex="1" parent="1">
          <mxGeometry x="145" y="78" width="30" height="60" as="geometry" />
        </mxCell>
        <mxCell id="1RQeHupGN9nbwRqFfmEi-2" value="UI" style="shape=umlBoundary;whiteSpace=wrap;html=1;strokeColor=#457B9D;fontColor=#1D3557;fillColor=#A8DADC;" vertex="1" parent="1">
          <mxGeometry x="400" y="78" width="70" height="60" as="geometry" />
        </mxCell>
        <mxCell id="1RQeHupGN9nbwRqFfmEi-3" value="User Based Back" style="ellipse;shape=umlControl;whiteSpace=wrap;html=1;strokeColor=#457B9D;fontColor=#1D3557;fillColor=#A8DADC;" vertex="1" parent="1">
          <mxGeometry x="690" y="66" width="60" height="72" as="geometry" />
        </mxCell>
        <mxCell id="1RQeHupGN9nbwRqFfmEi-4" value="Server Storage" style="ellipse;shape=umlEntity;whiteSpace=wrap;html=1;strokeColor=#457B9D;fontColor=#1D3557;fillColor=#A8DADC;" vertex="1" parent="1">
          <mxGeometry x="970" y="70" width="60" height="68" as="geometry" />
        </mxCell>
        <mxCell id="1RQeHupGN9nbwRqFfmEi-5" value="Files DB" style="ellipse;shape=umlEntity;whiteSpace=wrap;html=1;strokeColor=#457B9D;fontColor=#1D3557;fillColor=#A8DADC;" vertex="1" parent="1">
          <mxGeometry x="1810" y="62" width="60" height="68" as="geometry" />
        </mxCell>
        <mxCell id="1RQeHupGN9nbwRqFfmEi-6" value="Add Trans-action" style="ellipse;shape=umlControl;whiteSpace=wrap;html=1;strokeColor=#457B9D;fontColor=#1D3557;fillColor=#A8DADC;" vertex="1" parent="1">
          <mxGeometry x="1530" y="60" width="60" height="72" as="geometry" />
        </mxCell>
        <mxCell id="1RQeHupGN9nbwRqFfmEi-8" value="Depart-ments&lt;br&gt;DB" style="ellipse;shape=umlEntity;whiteSpace=wrap;html=1;strokeColor=#457B9D;fontColor=#1D3557;fillColor=#A8DADC;" vertex="1" parent="1">
          <mxGeometry x="2370" y="60" width="60" height="68" as="geometry" />
        </mxCell>
        <mxCell id="1RQeHupGN9nbwRqFfmEi-9" value="" style="endArrow=none;dashed=1;html=1;dashPattern=1 3;strokeWidth=2;rounded=0;strokeColor=#457B9D;fontColor=#1D3557;fillColor=#A8DADC;entryX=0.5;entryY=0.5;entryDx=0;entryDy=0;entryPerimeter=0;" edge="1" parent="1" source="1RQeHupGN9nbwRqFfmEi-130" target="1RQeHupGN9nbwRqFfmEi-1">
          <mxGeometry width="50" height="50" relative="1" as="geometry">
            <mxPoint x="160" y="2480" as="sourcePoint" />
            <mxPoint x="165" y="210" as="targetPoint" />
          </mxGeometry>
        </mxCell>
        <mxCell id="1RQeHupGN9nbwRqFfmEi-10" value="" style="endArrow=none;dashed=1;html=1;dashPattern=1 3;strokeWidth=2;rounded=0;strokeColor=#457B9D;fontColor=#1D3557;fillColor=#A8DADC;entryX=0.586;entryY=0.967;entryDx=0;entryDy=0;entryPerimeter=0;" edge="1" parent="1" source="1RQeHupGN9nbwRqFfmEi-128" target="1RQeHupGN9nbwRqFfmEi-2">
          <mxGeometry width="50" height="50" relative="1" as="geometry">
            <mxPoint x="441" y="2480" as="sourcePoint" />
            <mxPoint x="440" y="160" as="targetPoint" />
          </mxGeometry>
        </mxCell>
        <mxCell id="1RQeHupGN9nbwRqFfmEi-11" value="" style="endArrow=none;dashed=1;html=1;dashPattern=1 3;strokeWidth=2;rounded=0;strokeColor=#457B9D;fontColor=#1D3557;fillColor=#A8DADC;entryX=0.533;entryY=0.972;entryDx=0;entryDy=0;entryPerimeter=0;" edge="1" parent="1" source="1RQeHupGN9nbwRqFfmEi-134" target="1RQeHupGN9nbwRqFfmEi-3">
          <mxGeometry width="50" height="50" relative="1" as="geometry">
            <mxPoint x="722" y="2480" as="sourcePoint" />
            <mxPoint x="720.5" y="150" as="targetPoint" />
          </mxGeometry>
        </mxCell>
        <mxCell id="1RQeHupGN9nbwRqFfmEi-12" value="" style="endArrow=none;dashed=1;html=1;dashPattern=1 3;strokeWidth=2;rounded=0;strokeColor=#457B9D;fontColor=#1D3557;fillColor=#A8DADC;entryX=0.5;entryY=1;entryDx=0;entryDy=0;" edge="1" parent="1" source="1RQeHupGN9nbwRqFfmEi-156" target="1RQeHupGN9nbwRqFfmEi-4">
          <mxGeometry width="50" height="50" relative="1" as="geometry">
            <mxPoint x="1000" y="2480" as="sourcePoint" />
            <mxPoint x="1001.25" y="150" as="targetPoint" />
          </mxGeometry>
        </mxCell>
        <mxCell id="1RQeHupGN9nbwRqFfmEi-13" value="" style="endArrow=none;dashed=1;html=1;dashPattern=1 3;strokeWidth=2;rounded=0;strokeColor=#457B9D;fontColor=#1D3557;fillColor=#A8DADC;entryX=0.483;entryY=1;entryDx=0;entryDy=0;entryPerimeter=0;" edge="1" parent="1" source="1RQeHupGN9nbwRqFfmEi-162" target="1RQeHupGN9nbwRqFfmEi-6">
          <mxGeometry width="50" height="50" relative="1" as="geometry">
            <mxPoint x="1559" y="2480" as="sourcePoint" />
            <mxPoint x="1560.63" y="148" as="targetPoint" />
          </mxGeometry>
        </mxCell>
        <mxCell id="1RQeHupGN9nbwRqFfmEi-14" value="" style="endArrow=none;dashed=1;html=1;dashPattern=1 3;strokeWidth=2;rounded=0;strokeColor=#457B9D;fontColor=#1D3557;fillColor=#A8DADC;entryX=0.5;entryY=1;entryDx=0;entryDy=0;" edge="1" parent="1" source="1RQeHupGN9nbwRqFfmEi-172" target="1RQeHupGN9nbwRqFfmEi-5">
          <mxGeometry width="50" height="50" relative="1" as="geometry">
            <mxPoint x="1840" y="2480" as="sourcePoint" />
            <mxPoint x="1839.5" y="150" as="targetPoint" />
          </mxGeometry>
        </mxCell>
        <mxCell id="1RQeHupGN9nbwRqFfmEi-16" value="" style="endArrow=none;dashed=1;html=1;dashPattern=1 3;strokeWidth=2;rounded=0;strokeColor=#457B9D;fontColor=#1D3557;fillColor=#A8DADC;entryX=0.5;entryY=1;entryDx=0;entryDy=0;" edge="1" parent="1" source="1RQeHupGN9nbwRqFfmEi-140" target="1RQeHupGN9nbwRqFfmEi-8">
          <mxGeometry width="50" height="50" relative="1" as="geometry">
            <mxPoint x="2400" y="2480" as="sourcePoint" />
            <mxPoint x="2400" y="150" as="targetPoint" />
          </mxGeometry>
        </mxCell>
        <mxCell id="1RQeHupGN9nbwRqFfmEi-18" value="Logins&lt;br&gt;&amp;nbsp;DB" style="ellipse;shape=umlEntity;whiteSpace=wrap;html=1;strokeColor=#457B9D;fontColor=#1D3557;fillColor=#A8DADC;" vertex="1" parent="1">
          <mxGeometry x="1250" y="72" width="60" height="68" as="geometry" />
        </mxCell>
        <mxCell id="1RQeHupGN9nbwRqFfmEi-19" value="" style="endArrow=none;dashed=1;html=1;dashPattern=1 3;strokeWidth=2;rounded=0;strokeColor=#457B9D;fontColor=#1D3557;fillColor=#A8DADC;entryX=0.5;entryY=1;entryDx=0;entryDy=0;" edge="1" parent="1" target="1RQeHupGN9nbwRqFfmEi-18" source="1RQeHupGN9nbwRqFfmEi-138">
          <mxGeometry width="50" height="50" relative="1" as="geometry">
            <mxPoint x="1280" y="2480" as="sourcePoint" />
            <mxPoint x="1279.5" y="160" as="targetPoint" />
          </mxGeometry>
        </mxCell>
        <mxCell id="1RQeHupGN9nbwRqFfmEi-20" value="&#39;Add Document&#39; Button Pressed" style="html=1;verticalAlign=bottom;endArrow=block;curved=0;rounded=0;strokeColor=#457B9D;fontColor=#1D3557;fillColor=#A8DADC;" edge="1" parent="1">
          <mxGeometry width="80" relative="1" as="geometry">
            <mxPoint x="160" y="200" as="sourcePoint" />
            <mxPoint x="440" y="200" as="targetPoint" />
          </mxGeometry>
        </mxCell>
        <mxCell id="1RQeHupGN9nbwRqFfmEi-29" value="Show &#39;Document Type Selection&#39; submenu with list &lt;br&gt;of types: [&#39;Actual Data&#39;, &#39;Write-off Data&#39;, &#39;Admission Data&#39;]" style="html=1;verticalAlign=bottom;endArrow=block;curved=0;rounded=0;strokeColor=#457B9D;fontColor=#1D3557;fillColor=#A8DADC;" edge="1" parent="1">
          <mxGeometry width="80" relative="1" as="geometry">
            <mxPoint x="442" y="822" as="sourcePoint" />
            <mxPoint x="162" y="822" as="targetPoint" />
            <mxPoint as="offset" />
          </mxGeometry>
        </mxCell>
        <mxCell id="1RQeHupGN9nbwRqFfmEi-30" value="One of list elements selected" style="html=1;verticalAlign=bottom;endArrow=block;curved=0;rounded=0;strokeColor=#457B9D;fontColor=#1D3557;fillColor=#A8DADC;" edge="1" parent="1">
          <mxGeometry width="80" relative="1" as="geometry">
            <mxPoint x="162" y="862" as="sourcePoint" />
            <mxPoint x="442" y="862" as="targetPoint" />
          </mxGeometry>
        </mxCell>
        <mxCell id="1RQeHupGN9nbwRqFfmEi-31" value="Request Table Existence check for User Department" style="html=1;verticalAlign=bottom;endArrow=block;curved=0;rounded=0;strokeColor=#457B9D;fontColor=#1D3557;fillColor=#A8DADC;" edge="1" parent="1">
          <mxGeometry width="80" relative="1" as="geometry">
            <mxPoint x="442" y="322" as="sourcePoint" />
            <mxPoint x="722" y="322" as="targetPoint" />
          </mxGeometry>
        </mxCell>
        <mxCell id="1RQeHupGN9nbwRqFfmEi-32" value="Get User &#39;Department&#39; Name by &#39;Login&#39;" style="html=1;verticalAlign=bottom;endArrow=block;curved=0;rounded=0;strokeColor=#457B9D;fontColor=#1D3557;fillColor=#A8DADC;" edge="1" parent="1">
          <mxGeometry width="80" relative="1" as="geometry">
            <mxPoint x="722" y="362" as="sourcePoint" />
            <mxPoint x="1282" y="362" as="targetPoint" />
          </mxGeometry>
        </mxCell>
        <mxCell id="1RQeHupGN9nbwRqFfmEi-34" value="Send User &#39;Department&#39; Name" style="html=1;verticalAlign=bottom;endArrow=block;curved=0;rounded=0;strokeColor=#457B9D;fontColor=#1D3557;fillColor=#A8DADC;" edge="1" parent="1">
          <mxGeometry width="80" relative="1" as="geometry">
            <mxPoint x="1282" y="502" as="sourcePoint" />
            <mxPoint x="722" y="502" as="targetPoint" />
          </mxGeometry>
        </mxCell>
        <mxCell id="1RQeHupGN9nbwRqFfmEi-36" value="Check Existence of &#39;Department Table&#39; for Users &#39;Department&#39;" style="html=1;verticalAlign=bottom;endArrow=block;curved=0;rounded=0;strokeColor=#457B9D;fontColor=#1D3557;fillColor=#A8DADC;" edge="1" parent="1">
          <mxGeometry width="80" relative="1" as="geometry">
            <mxPoint x="722" y="552" as="sourcePoint" />
            <mxPoint x="2403" y="552" as="targetPoint" />
          </mxGeometry>
        </mxCell>
        <mxCell id="1RQeHupGN9nbwRqFfmEi-39" value="Send Result" style="html=1;verticalAlign=bottom;endArrow=block;curved=0;rounded=0;strokeColor=#457B9D;fontColor=#1D3557;fillColor=#A8DADC;" edge="1" parent="1">
          <mxGeometry width="80" relative="1" as="geometry">
            <mxPoint x="2404" y="682" as="sourcePoint" />
            <mxPoint x="722" y="682" as="targetPoint" />
          </mxGeometry>
        </mxCell>
        <mxCell id="1RQeHupGN9nbwRqFfmEi-40" value="Send Result" style="html=1;verticalAlign=bottom;endArrow=block;curved=0;rounded=0;strokeColor=#457B9D;fontColor=#1D3557;fillColor=#A8DADC;" edge="1" parent="1">
          <mxGeometry width="80" relative="1" as="geometry">
            <mxPoint x="722" y="722" as="sourcePoint" />
            <mxPoint x="442" y="722" as="targetPoint" />
            <mxPoint as="offset" />
          </mxGeometry>
        </mxCell>
        <mxCell id="1RQeHupGN9nbwRqFfmEi-44" value="Show &#39;Upload File&#39; Menu with &lt;br&gt;&#39;Drag and Drop&#39; Field and &#39;Open Finder&#39; Button" style="html=1;verticalAlign=bottom;endArrow=block;curved=0;rounded=0;strokeColor=#457B9D;fontColor=#1D3557;fillColor=#A8DADC;" edge="1" parent="1">
          <mxGeometry width="80" relative="1" as="geometry">
            <mxPoint x="440.75" y="240" as="sourcePoint" />
            <mxPoint x="160.75" y="240" as="targetPoint" />
          </mxGeometry>
        </mxCell>
        <mxCell id="1RQeHupGN9nbwRqFfmEi-46" value="Send Request To &#39;Upload File&#39; &lt;br&gt;With Selected Type (or Default Value - &#39;Actual Data&#39;)&lt;br&gt;and uploaded File (xls or csv or .numbers)" style="html=1;verticalAlign=bottom;endArrow=block;curved=0;rounded=0;strokeColor=#457B9D;fontColor=#1D3557;fillColor=#A8DADC;" edge="1" parent="1">
          <mxGeometry width="80" relative="1" as="geometry">
            <mxPoint x="441" y="961" as="sourcePoint" />
            <mxPoint x="721" y="961" as="targetPoint" />
          </mxGeometry>
        </mxCell>
        <mxCell id="1RQeHupGN9nbwRqFfmEi-47" value="Try to Upload&amp;nbsp;File on Server" style="html=1;verticalAlign=bottom;endArrow=block;curved=0;rounded=0;strokeColor=#457B9D;fontColor=#1D3557;fillColor=#A8DADC;" edge="1" parent="1">
          <mxGeometry width="80" relative="1" as="geometry">
            <mxPoint x="720" y="1203" as="sourcePoint" />
            <mxPoint x="1000" y="1203" as="targetPoint" />
          </mxGeometry>
        </mxCell>
        <mxCell id="1RQeHupGN9nbwRqFfmEi-49" value="Kafka" style="ellipse;shape=umlEntity;whiteSpace=wrap;html=1;strokeColor=#457B9D;fontColor=#1D3557;fillColor=#A8DADC;" vertex="1" parent="1">
          <mxGeometry x="2650" y="60" width="60" height="68" as="geometry" />
        </mxCell>
        <mxCell id="1RQeHupGN9nbwRqFfmEi-50" value="" style="endArrow=none;dashed=1;html=1;dashPattern=1 3;strokeWidth=2;rounded=0;strokeColor=#457B9D;fontColor=#1D3557;fillColor=#A8DADC;entryX=0.5;entryY=1;entryDx=0;entryDy=0;" edge="1" parent="1" target="1RQeHupGN9nbwRqFfmEi-49">
          <mxGeometry width="50" height="50" relative="1" as="geometry">
            <mxPoint x="2680" y="3963" as="sourcePoint" />
            <mxPoint x="2680" y="150" as="targetPoint" />
          </mxGeometry>
        </mxCell>
        <mxCell id="1RQeHupGN9nbwRqFfmEi-51" value="Task&amp;nbsp;&lt;br&gt;Manager" style="ellipse;shape=umlControl;whiteSpace=wrap;html=1;strokeColor=#457B9D;fontColor=#1D3557;fillColor=#A8DADC;" vertex="1" parent="1">
          <mxGeometry x="2930" y="60" width="60" height="72" as="geometry" />
        </mxCell>
        <mxCell id="1RQeHupGN9nbwRqFfmEi-52" value="" style="endArrow=none;dashed=1;html=1;dashPattern=1 3;strokeWidth=2;rounded=0;strokeColor=#457B9D;fontColor=#1D3557;fillColor=#A8DADC;entryX=0.483;entryY=1;entryDx=0;entryDy=0;entryPerimeter=0;" edge="1" parent="1" target="1RQeHupGN9nbwRqFfmEi-51" source="1RQeHupGN9nbwRqFfmEi-169">
          <mxGeometry width="50" height="50" relative="1" as="geometry">
            <mxPoint x="2959" y="2480" as="sourcePoint" />
            <mxPoint x="2960.63" y="148" as="targetPoint" />
          </mxGeometry>
        </mxCell>
        <mxCell id="1RQeHupGN9nbwRqFfmEi-55" value="Send Upload Result" style="html=1;verticalAlign=bottom;endArrow=block;curved=0;rounded=0;strokeColor=#457B9D;fontColor=#1D3557;fillColor=#A8DADC;" edge="1" parent="1">
          <mxGeometry width="80" relative="1" as="geometry">
            <mxPoint x="1000" y="1243" as="sourcePoint" />
            <mxPoint x="720" y="1243" as="targetPoint" />
          </mxGeometry>
        </mxCell>
        <mxCell id="1RQeHupGN9nbwRqFfmEi-58" value="&#39;Upload&#39; Button Pressed" style="html=1;verticalAlign=bottom;endArrow=block;curved=0;rounded=0;strokeColor=#457B9D;fontColor=#1D3557;fillColor=#A8DADC;" edge="1" parent="1">
          <mxGeometry width="80" relative="1" as="geometry">
            <mxPoint x="162" y="922" as="sourcePoint" />
            <mxPoint x="442" y="922" as="targetPoint" />
          </mxGeometry>
        </mxCell>
        <mxCell id="1RQeHupGN9nbwRqFfmEi-59" value="Send Fail Notification" style="html=1;verticalAlign=bottom;endArrow=block;curved=0;rounded=0;strokeColor=#457B9D;fontColor=#1D3557;fillColor=#A8DADC;" edge="1" parent="1">
          <mxGeometry width="80" relative="1" as="geometry">
            <mxPoint x="720" y="1304" as="sourcePoint" />
            <mxPoint x="440" y="1304" as="targetPoint" />
          </mxGeometry>
        </mxCell>
        <mxCell id="1RQeHupGN9nbwRqFfmEi-60" value="Show Fail Notification" style="html=1;verticalAlign=bottom;endArrow=block;curved=0;rounded=0;strokeColor=#457B9D;fontColor=#1D3557;fillColor=#A8DADC;" edge="1" parent="1">
          <mxGeometry width="80" relative="1" as="geometry">
            <mxPoint x="440" y="1344" as="sourcePoint" />
            <mxPoint x="160" y="1344" as="targetPoint" />
          </mxGeometry>
        </mxCell>
        <mxCell id="1RQeHupGN9nbwRqFfmEi-64" value="Send Newly Added File Full Path&amp;nbsp;for Add to DB (topic vary depends on upload type)" style="html=1;verticalAlign=bottom;endArrow=block;curved=0;rounded=0;strokeColor=#457B9D;fontColor=#1D3557;fillColor=#A8DADC;" edge="1" parent="1">
          <mxGeometry width="80" relative="1" as="geometry">
            <mxPoint x="720" y="1414" as="sourcePoint" />
            <mxPoint x="2682" y="1414" as="targetPoint" />
          </mxGeometry>
        </mxCell>
        <mxCell id="1RQeHupGN9nbwRqFfmEi-65" value="Upload Comand Was &lt;br&gt;Sent with all the info" style="html=1;verticalAlign=bottom;endArrow=block;curved=0;rounded=0;strokeColor=#457B9D;fontColor=#1D3557;fillColor=#A8DADC;" edge="1" parent="1">
          <mxGeometry width="80" relative="1" as="geometry">
            <mxPoint x="2680" y="1440" as="sourcePoint" />
            <mxPoint x="2960" y="1440" as="targetPoint" />
            <mxPoint as="offset" />
          </mxGeometry>
        </mxCell>
        <mxCell id="1RQeHupGN9nbwRqFfmEi-74" value="Any of Options to upload File Was Used" style="html=1;verticalAlign=bottom;endArrow=block;curved=0;rounded=0;strokeColor=#457B9D;fontColor=#1D3557;fillColor=#A8DADC;" edge="1" parent="1">
          <mxGeometry width="80" relative="1" as="geometry">
            <mxPoint x="162.25" y="280" as="sourcePoint" />
            <mxPoint x="442.25" y="280" as="targetPoint" />
          </mxGeometry>
        </mxCell>
        <mxCell id="1RQeHupGN9nbwRqFfmEi-94" value="Convert File to &#39;.csv&#39; if .xls &lt;br&gt;or .numbers was uploaded" style="html=1;verticalAlign=bottom;endArrow=block;curved=0;rounded=0;strokeColor=#457B9D;fontColor=#1D3557;fillColor=#A8DADC;" edge="1" parent="1">
          <mxGeometry width="80" relative="1" as="geometry">
            <mxPoint x="720" y="1022" as="sourcePoint" />
            <mxPoint x="720" y="1122" as="targetPoint" />
            <Array as="points">
              <mxPoint x="800" y="1022" />
              <mxPoint x="800" y="1122" />
            </Array>
          </mxGeometry>
        </mxCell>
        <mxCell id="1RQeHupGN9nbwRqFfmEi-98" value="Get File by Path" style="html=1;verticalAlign=bottom;endArrow=block;curved=0;rounded=0;strokeColor=#457B9D;fontColor=#1D3557;fillColor=#A8DADC;" edge="1" parent="1">
          <mxGeometry width="80" relative="1" as="geometry">
            <mxPoint x="2960" y="1480" as="sourcePoint" />
            <mxPoint x="1000" y="1480" as="targetPoint" />
            <mxPoint as="offset" />
          </mxGeometry>
        </mxCell>
        <mxCell id="1RQeHupGN9nbwRqFfmEi-99" value="Send File" style="html=1;verticalAlign=bottom;endArrow=block;curved=0;rounded=0;strokeColor=#457B9D;fontColor=#1D3557;fillColor=#A8DADC;" edge="1" parent="1">
          <mxGeometry width="80" relative="1" as="geometry">
            <mxPoint x="999" y="1520" as="sourcePoint" />
            <mxPoint x="2961" y="1520" as="targetPoint" />
            <mxPoint as="offset" />
          </mxGeometry>
        </mxCell>
        <mxCell id="1RQeHupGN9nbwRqFfmEi-104" value="Send &#39;Names&#39;, &#39;attributes&#39;, &#39;Values&#39;,&lt;br&gt;&amp;nbsp;&#39;Sender (Login)&#39;, &#39;Department&#39;, &#39;Document&lt;br&gt;Type&#39;, &#39;Task Id&#39;, &#39;Uniqueness&#39; and all &#39;Limits&#39; info if it was received" style="html=1;verticalAlign=bottom;endArrow=block;curved=0;rounded=0;strokeColor=#457B9D;fontColor=#1D3557;fillColor=#A8DADC;" edge="1" parent="1">
          <mxGeometry width="80" relative="1" as="geometry">
            <mxPoint x="2960" y="3360" as="sourcePoint" />
            <mxPoint x="1560" y="3360" as="targetPoint" />
            <mxPoint as="offset" />
          </mxGeometry>
        </mxCell>
        <mxCell id="1RQeHupGN9nbwRqFfmEi-105" value="Add New &#39;Loaded Data&#39;" style="html=1;verticalAlign=bottom;endArrow=block;curved=0;rounded=0;strokeColor=#457B9D;fontColor=#1D3557;fillColor=#A8DADC;" edge="1" parent="1">
          <mxGeometry width="80" relative="1" as="geometry">
            <mxPoint x="1560" y="3420" as="sourcePoint" />
            <mxPoint x="1840" y="3420" as="targetPoint" />
          </mxGeometry>
        </mxCell>
        <mxCell id="1RQeHupGN9nbwRqFfmEi-106" value="Send Transaction Result with &#39;Task id&#39;" style="html=1;verticalAlign=bottom;endArrow=block;curved=0;rounded=0;strokeColor=#457B9D;fontColor=#1D3557;fillColor=#A8DADC;" edge="1" parent="1">
          <mxGeometry width="80" relative="1" as="geometry">
            <mxPoint x="1560" y="3460" as="sourcePoint" />
            <mxPoint x="2684" y="3460" as="targetPoint" />
          </mxGeometry>
        </mxCell>
        <mxCell id="1RQeHupGN9nbwRqFfmEi-107" value="Transaction Result and &#39;Task id&#39; Sent" style="html=1;verticalAlign=bottom;endArrow=block;curved=0;rounded=0;strokeColor=#457B9D;fontColor=#1D3557;fillColor=#A8DADC;" edge="1" parent="1">
          <mxGeometry width="80" relative="1" as="geometry">
            <mxPoint x="2680" y="3500" as="sourcePoint" />
            <mxPoint x="2960" y="3500" as="targetPoint" />
            <mxPoint as="offset" />
          </mxGeometry>
        </mxCell>
        <mxCell id="1RQeHupGN9nbwRqFfmEi-117" value="Add Complaint Trans-action" style="ellipse;shape=umlControl;whiteSpace=wrap;html=1;strokeColor=#457B9D;fontColor=#1D3557;fillColor=#A8DADC;" vertex="1" parent="1">
          <mxGeometry x="2090" y="50" width="60" height="72" as="geometry" />
        </mxCell>
        <mxCell id="1RQeHupGN9nbwRqFfmEi-118" value="" style="endArrow=none;dashed=1;html=1;dashPattern=1 3;strokeWidth=2;rounded=0;strokeColor=#457B9D;fontColor=#1D3557;fillColor=#A8DADC;entryX=0.483;entryY=1;entryDx=0;entryDy=0;entryPerimeter=0;" edge="1" parent="1" target="1RQeHupGN9nbwRqFfmEi-117">
          <mxGeometry width="50" height="50" relative="1" as="geometry">
            <mxPoint x="2119" y="3961" as="sourcePoint" />
            <mxPoint x="2119.5" y="150" as="targetPoint" />
          </mxGeometry>
        </mxCell>
        <mxCell id="1RQeHupGN9nbwRqFfmEi-119" value="Add New &#39;Complaint&#39;" style="html=1;verticalAlign=bottom;endArrow=block;curved=0;rounded=0;strokeColor=#457B9D;fontColor=#1D3557;fillColor=#A8DADC;" edge="1" parent="1">
          <mxGeometry width="80" relative="1" as="geometry">
            <mxPoint x="2120" y="3761" as="sourcePoint" />
            <mxPoint x="1840" y="3761" as="targetPoint" />
          </mxGeometry>
        </mxCell>
        <mxCell id="1RQeHupGN9nbwRqFfmEi-121" value="Task to Create Complaint sent" style="html=1;verticalAlign=bottom;endArrow=block;curved=0;rounded=0;strokeColor=#457B9D;fontColor=#1D3557;fillColor=#A8DADC;" edge="1" parent="1">
          <mxGeometry width="80" relative="1" as="geometry">
            <mxPoint x="2680" y="3681" as="sourcePoint" />
            <mxPoint x="2960" y="3681" as="targetPoint" />
            <mxPoint as="offset" />
          </mxGeometry>
        </mxCell>
        <mxCell id="1RQeHupGN9nbwRqFfmEi-122" value="&amp;nbsp;Send &#39;Complaint&#39; and its creation &#39;Task id&#39;" style="html=1;verticalAlign=bottom;endArrow=block;curved=0;rounded=0;strokeColor=#457B9D;fontColor=#1D3557;fillColor=#A8DADC;" edge="1" parent="1">
          <mxGeometry width="80" relative="1" as="geometry">
            <mxPoint x="2960" y="3721" as="sourcePoint" />
            <mxPoint x="2120" y="3721" as="targetPoint" />
          </mxGeometry>
        </mxCell>
        <mxCell id="1RQeHupGN9nbwRqFfmEi-123" value="Send Transaction Result with &#39;Task id&#39;" style="html=1;verticalAlign=bottom;endArrow=block;curved=0;rounded=0;strokeColor=#457B9D;fontColor=#1D3557;fillColor=#A8DADC;" edge="1" parent="1">
          <mxGeometry width="80" relative="1" as="geometry">
            <mxPoint x="2118" y="3801" as="sourcePoint" />
            <mxPoint x="2680" y="3801" as="targetPoint" />
          </mxGeometry>
        </mxCell>
        <mxCell id="1RQeHupGN9nbwRqFfmEi-124" value="Transaction Result and &#39;Task id&#39; Sent" style="html=1;verticalAlign=bottom;endArrow=block;curved=0;rounded=0;strokeColor=#457B9D;fontColor=#1D3557;fillColor=#A8DADC;" edge="1" parent="1">
          <mxGeometry width="80" relative="1" as="geometry">
            <mxPoint x="2680" y="3841" as="sourcePoint" />
            <mxPoint x="2960" y="3841" as="targetPoint" />
            <mxPoint as="offset" />
          </mxGeometry>
        </mxCell>
        <mxCell id="1RQeHupGN9nbwRqFfmEi-129" value="" style="endArrow=none;dashed=1;html=1;dashPattern=1 3;strokeWidth=2;rounded=0;strokeColor=#457B9D;fontColor=#1D3557;fillColor=#A8DADC;entryX=0.586;entryY=0.967;entryDx=0;entryDy=0;entryPerimeter=0;" edge="1" parent="1" source="1RQeHupGN9nbwRqFfmEi-132" target="1RQeHupGN9nbwRqFfmEi-128">
          <mxGeometry width="50" height="50" relative="1" as="geometry">
            <mxPoint x="441" y="2480" as="sourcePoint" />
            <mxPoint x="441" y="136" as="targetPoint" />
          </mxGeometry>
        </mxCell>
        <mxCell id="1RQeHupGN9nbwRqFfmEi-128" value="" style="html=1;points=[[0,0,0,0,5],[0,1,0,0,-5],[1,0,0,0,5],[1,1,0,0,-5]];perimeter=orthogonalPerimeter;outlineConnect=0;targetShapes=umlLifeline;portConstraint=eastwest;newEdgeStyle={&quot;curved&quot;:0,&quot;rounded&quot;:0};strokeColor=#457B9D;fontColor=#1D3557;fillColor=#A8DADC;" vertex="1" parent="1">
          <mxGeometry x="436" y="200" width="10" height="40" as="geometry" />
        </mxCell>
        <mxCell id="1RQeHupGN9nbwRqFfmEi-131" value="" style="endArrow=none;dashed=1;html=1;dashPattern=1 3;strokeWidth=2;rounded=0;strokeColor=#457B9D;fontColor=#1D3557;fillColor=#A8DADC;entryX=0.5;entryY=0.5;entryDx=0;entryDy=0;entryPerimeter=0;" edge="1" parent="1" source="1RQeHupGN9nbwRqFfmEi-142" target="1RQeHupGN9nbwRqFfmEi-130">
          <mxGeometry width="50" height="50" relative="1" as="geometry">
            <mxPoint x="160" y="2480" as="sourcePoint" />
            <mxPoint x="160" y="108" as="targetPoint" />
          </mxGeometry>
        </mxCell>
        <mxCell id="1RQeHupGN9nbwRqFfmEi-130" value="" style="html=1;points=[[0,0,0,0,5],[0,1,0,0,-5],[1,0,0,0,5],[1,1,0,0,-5]];perimeter=orthogonalPerimeter;outlineConnect=0;targetShapes=umlLifeline;portConstraint=eastwest;newEdgeStyle={&quot;curved&quot;:0,&quot;rounded&quot;:0};strokeColor=#457B9D;fontColor=#1D3557;fillColor=#A8DADC;" vertex="1" parent="1">
          <mxGeometry x="155" y="240" width="10" height="40" as="geometry" />
        </mxCell>
        <mxCell id="1RQeHupGN9nbwRqFfmEi-133" value="" style="endArrow=none;dashed=1;html=1;dashPattern=1 3;strokeWidth=2;rounded=0;strokeColor=#457B9D;fontColor=#1D3557;fillColor=#A8DADC;entryX=0.586;entryY=0.967;entryDx=0;entryDy=0;entryPerimeter=0;" edge="1" parent="1" source="1RQeHupGN9nbwRqFfmEi-144" target="1RQeHupGN9nbwRqFfmEi-132">
          <mxGeometry width="50" height="50" relative="1" as="geometry">
            <mxPoint x="441" y="2480" as="sourcePoint" />
            <mxPoint x="442" y="239" as="targetPoint" />
          </mxGeometry>
        </mxCell>
        <mxCell id="1RQeHupGN9nbwRqFfmEi-132" value="" style="html=1;points=[[0,0,0,0,5],[0,1,0,0,-5],[1,0,0,0,5],[1,1,0,0,-5]];perimeter=orthogonalPerimeter;outlineConnect=0;targetShapes=umlLifeline;portConstraint=eastwest;newEdgeStyle={&quot;curved&quot;:0,&quot;rounded&quot;:0};strokeColor=#457B9D;fontColor=#1D3557;fillColor=#A8DADC;" vertex="1" parent="1">
          <mxGeometry x="439" y="322" width="10" height="397" as="geometry" />
        </mxCell>
        <mxCell id="1RQeHupGN9nbwRqFfmEi-135" value="" style="endArrow=none;dashed=1;html=1;dashPattern=1 3;strokeWidth=2;rounded=0;strokeColor=#457B9D;fontColor=#1D3557;fillColor=#A8DADC;entryX=0.533;entryY=0.972;entryDx=0;entryDy=0;entryPerimeter=0;" edge="1" parent="1" source="1RQeHupGN9nbwRqFfmEi-136" target="1RQeHupGN9nbwRqFfmEi-134">
          <mxGeometry width="50" height="50" relative="1" as="geometry">
            <mxPoint x="722" y="2480" as="sourcePoint" />
            <mxPoint x="722" y="136" as="targetPoint" />
          </mxGeometry>
        </mxCell>
        <mxCell id="1RQeHupGN9nbwRqFfmEi-134" value="" style="html=1;points=[[0,0,0,0,5],[0,1,0,0,-5],[1,0,0,0,5],[1,1,0,0,-5]];perimeter=orthogonalPerimeter;outlineConnect=0;targetShapes=umlLifeline;portConstraint=eastwest;newEdgeStyle={&quot;curved&quot;:0,&quot;rounded&quot;:0};strokeColor=#457B9D;fontColor=#1D3557;fillColor=#A8DADC;" vertex="1" parent="1">
          <mxGeometry x="718" y="362" width="10" height="140" as="geometry" />
        </mxCell>
        <mxCell id="1RQeHupGN9nbwRqFfmEi-137" value="" style="endArrow=none;dashed=1;html=1;dashPattern=1 3;strokeWidth=2;rounded=0;strokeColor=#457B9D;fontColor=#1D3557;fillColor=#A8DADC;entryX=0.533;entryY=0.972;entryDx=0;entryDy=0;entryPerimeter=0;" edge="1" parent="1" source="1RQeHupGN9nbwRqFfmEi-148" target="1RQeHupGN9nbwRqFfmEi-136">
          <mxGeometry width="50" height="50" relative="1" as="geometry">
            <mxPoint x="722" y="2480" as="sourcePoint" />
            <mxPoint x="723" y="498" as="targetPoint" />
          </mxGeometry>
        </mxCell>
        <mxCell id="1RQeHupGN9nbwRqFfmEi-136" value="" style="html=1;points=[[0,0,0,0,5],[0,1,0,0,-5],[1,0,0,0,5],[1,1,0,0,-5]];perimeter=orthogonalPerimeter;outlineConnect=0;targetShapes=umlLifeline;portConstraint=eastwest;newEdgeStyle={&quot;curved&quot;:0,&quot;rounded&quot;:0};strokeColor=#457B9D;fontColor=#1D3557;fillColor=#A8DADC;" vertex="1" parent="1">
          <mxGeometry x="718" y="555" width="10" height="127" as="geometry" />
        </mxCell>
        <mxCell id="1RQeHupGN9nbwRqFfmEi-139" value="" style="endArrow=none;dashed=1;html=1;dashPattern=1 3;strokeWidth=2;rounded=0;strokeColor=#457B9D;fontColor=#1D3557;fillColor=#A8DADC;entryX=0.5;entryY=1;entryDx=0;entryDy=0;" edge="1" parent="1" target="1RQeHupGN9nbwRqFfmEi-138">
          <mxGeometry width="50" height="50" relative="1" as="geometry">
            <mxPoint x="1280" y="3961" as="sourcePoint" />
            <mxPoint x="1280" y="140" as="targetPoint" />
          </mxGeometry>
        </mxCell>
        <mxCell id="1RQeHupGN9nbwRqFfmEi-138" value="" style="html=1;points=[[0,0,0,0,5],[0,1,0,0,-5],[1,0,0,0,5],[1,1,0,0,-5]];perimeter=orthogonalPerimeter;outlineConnect=0;targetShapes=umlLifeline;portConstraint=eastwest;newEdgeStyle={&quot;curved&quot;:0,&quot;rounded&quot;:0};strokeColor=#457B9D;fontColor=#1D3557;fillColor=#A8DADC;" vertex="1" parent="1">
          <mxGeometry x="1275" y="381" width="10" height="86" as="geometry" />
        </mxCell>
        <mxCell id="1RQeHupGN9nbwRqFfmEi-33" value="Find &#39;Department&#39; Name for &#39;Login&#39;" style="html=1;verticalAlign=bottom;endArrow=block;curved=0;rounded=0;strokeColor=#457B9D;fontColor=#1D3557;fillColor=#A8DADC;" edge="1" parent="1">
          <mxGeometry width="80" relative="1" as="geometry">
            <mxPoint x="1282" y="382" as="sourcePoint" />
            <mxPoint x="1282" y="472" as="targetPoint" />
            <Array as="points">
              <mxPoint x="1362" y="382" />
              <mxPoint x="1362" y="472" />
            </Array>
          </mxGeometry>
        </mxCell>
        <mxCell id="1RQeHupGN9nbwRqFfmEi-141" value="" style="endArrow=none;dashed=1;html=1;dashPattern=1 3;strokeWidth=2;rounded=0;strokeColor=#457B9D;fontColor=#1D3557;fillColor=#A8DADC;entryX=0.5;entryY=1;entryDx=0;entryDy=0;" edge="1" parent="1" target="1RQeHupGN9nbwRqFfmEi-140">
          <mxGeometry width="50" height="50" relative="1" as="geometry">
            <mxPoint x="2400" y="3961" as="sourcePoint" />
            <mxPoint x="2400" y="128" as="targetPoint" />
          </mxGeometry>
        </mxCell>
        <mxCell id="1RQeHupGN9nbwRqFfmEi-140" value="" style="html=1;points=[[0,0,0,0,5],[0,1,0,0,-5],[1,0,0,0,5],[1,1,0,0,-5]];perimeter=orthogonalPerimeter;outlineConnect=0;targetShapes=umlLifeline;portConstraint=eastwest;newEdgeStyle={&quot;curved&quot;:0,&quot;rounded&quot;:0};strokeColor=#457B9D;fontColor=#1D3557;fillColor=#A8DADC;" vertex="1" parent="1">
          <mxGeometry x="2395" y="573" width="10" height="86" as="geometry" />
        </mxCell>
        <mxCell id="1RQeHupGN9nbwRqFfmEi-143" value="" style="endArrow=none;dashed=1;html=1;dashPattern=1 3;strokeWidth=2;rounded=0;strokeColor=#457B9D;fontColor=#1D3557;fillColor=#A8DADC;entryX=0.5;entryY=0.5;entryDx=0;entryDy=0;entryPerimeter=0;" edge="1" parent="1" source="1RQeHupGN9nbwRqFfmEi-146" target="1RQeHupGN9nbwRqFfmEi-142">
          <mxGeometry width="50" height="50" relative="1" as="geometry">
            <mxPoint x="160" y="2480" as="sourcePoint" />
            <mxPoint x="160" y="260" as="targetPoint" />
          </mxGeometry>
        </mxCell>
        <mxCell id="1RQeHupGN9nbwRqFfmEi-142" value="" style="html=1;points=[[0,0,0,0,5],[0,1,0,0,-5],[1,0,0,0,5],[1,1,0,0,-5]];perimeter=orthogonalPerimeter;outlineConnect=0;targetShapes=umlLifeline;portConstraint=eastwest;newEdgeStyle={&quot;curved&quot;:0,&quot;rounded&quot;:0};strokeColor=#457B9D;fontColor=#1D3557;fillColor=#A8DADC;" vertex="1" parent="1">
          <mxGeometry x="155" y="823" width="10" height="40" as="geometry" />
        </mxCell>
        <mxCell id="1RQeHupGN9nbwRqFfmEi-145" value="" style="endArrow=none;dashed=1;html=1;dashPattern=1 3;strokeWidth=2;rounded=0;strokeColor=#457B9D;fontColor=#1D3557;fillColor=#A8DADC;entryX=0.586;entryY=0.967;entryDx=0;entryDy=0;entryPerimeter=0;" edge="1" parent="1" target="1RQeHupGN9nbwRqFfmEi-144">
          <mxGeometry width="50" height="50" relative="1" as="geometry">
            <mxPoint x="441" y="3963" as="sourcePoint" />
            <mxPoint x="445" y="706" as="targetPoint" />
          </mxGeometry>
        </mxCell>
        <mxCell id="1RQeHupGN9nbwRqFfmEi-144" value="" style="html=1;points=[[0,0,0,0,5],[0,1,0,0,-5],[1,0,0,0,5],[1,1,0,0,-5]];perimeter=orthogonalPerimeter;outlineConnect=0;targetShapes=umlLifeline;portConstraint=eastwest;newEdgeStyle={&quot;curved&quot;:0,&quot;rounded&quot;:0};strokeColor=#457B9D;fontColor=#1D3557;fillColor=#A8DADC;" vertex="1" parent="1">
          <mxGeometry x="439" y="960" width="10" height="342" as="geometry" />
        </mxCell>
        <mxCell id="1RQeHupGN9nbwRqFfmEi-147" value="" style="endArrow=none;dashed=1;html=1;dashPattern=1 3;strokeWidth=2;rounded=0;strokeColor=#457B9D;fontColor=#1D3557;fillColor=#A8DADC;entryX=0.5;entryY=0.5;entryDx=0;entryDy=0;entryPerimeter=0;" edge="1" parent="1" target="1RQeHupGN9nbwRqFfmEi-146">
          <mxGeometry width="50" height="50" relative="1" as="geometry">
            <mxPoint x="160" y="3962" as="sourcePoint" />
            <mxPoint x="160" y="843" as="targetPoint" />
          </mxGeometry>
        </mxCell>
        <mxCell id="1RQeHupGN9nbwRqFfmEi-146" value="" style="html=1;points=[[0,0,0,0,5],[0,1,0,0,-5],[1,0,0,0,5],[1,1,0,0,-5]];perimeter=orthogonalPerimeter;outlineConnect=0;targetShapes=umlLifeline;portConstraint=eastwest;newEdgeStyle={&quot;curved&quot;:0,&quot;rounded&quot;:0};strokeColor=#457B9D;fontColor=#1D3557;fillColor=#A8DADC;" vertex="1" parent="1">
          <mxGeometry x="155" y="923" width="10" height="418" as="geometry" />
        </mxCell>
        <mxCell id="1RQeHupGN9nbwRqFfmEi-149" value="" style="endArrow=none;dashed=1;html=1;dashPattern=1 3;strokeWidth=2;rounded=0;strokeColor=#457B9D;fontColor=#1D3557;fillColor=#A8DADC;entryX=0.533;entryY=0.972;entryDx=0;entryDy=0;entryPerimeter=0;" edge="1" parent="1" source="1RQeHupGN9nbwRqFfmEi-150" target="1RQeHupGN9nbwRqFfmEi-148">
          <mxGeometry width="50" height="50" relative="1" as="geometry">
            <mxPoint x="722" y="2480" as="sourcePoint" />
            <mxPoint x="723" y="678" as="targetPoint" />
          </mxGeometry>
        </mxCell>
        <mxCell id="1RQeHupGN9nbwRqFfmEi-148" value="" style="html=1;points=[[0,0,0,0,5],[0,1,0,0,-5],[1,0,0,0,5],[1,1,0,0,-5]];perimeter=orthogonalPerimeter;outlineConnect=0;targetShapes=umlLifeline;portConstraint=eastwest;newEdgeStyle={&quot;curved&quot;:0,&quot;rounded&quot;:0};strokeColor=#457B9D;fontColor=#1D3557;fillColor=#A8DADC;" vertex="1" parent="1">
          <mxGeometry x="718" y="1022" width="10" height="97" as="geometry" />
        </mxCell>
        <mxCell id="1RQeHupGN9nbwRqFfmEi-151" value="" style="endArrow=none;dashed=1;html=1;dashPattern=1 3;strokeWidth=2;rounded=0;strokeColor=#457B9D;fontColor=#1D3557;fillColor=#A8DADC;entryX=0.533;entryY=0.972;entryDx=0;entryDy=0;entryPerimeter=0;" edge="1" parent="1" source="1RQeHupGN9nbwRqFfmEi-152" target="1RQeHupGN9nbwRqFfmEi-150">
          <mxGeometry width="50" height="50" relative="1" as="geometry">
            <mxPoint x="722" y="2480" as="sourcePoint" />
            <mxPoint x="723" y="1116" as="targetPoint" />
          </mxGeometry>
        </mxCell>
        <mxCell id="1RQeHupGN9nbwRqFfmEi-150" value="" style="html=1;points=[[0,0,0,0,5],[0,1,0,0,-5],[1,0,0,0,5],[1,1,0,0,-5]];perimeter=orthogonalPerimeter;outlineConnect=0;targetShapes=umlLifeline;portConstraint=eastwest;newEdgeStyle={&quot;curved&quot;:0,&quot;rounded&quot;:0};strokeColor=#457B9D;fontColor=#1D3557;fillColor=#A8DADC;" vertex="1" parent="1">
          <mxGeometry x="718" y="1203" width="10" height="40" as="geometry" />
        </mxCell>
        <mxCell id="1RQeHupGN9nbwRqFfmEi-153" value="" style="endArrow=none;dashed=1;html=1;dashPattern=1 3;strokeWidth=2;rounded=0;strokeColor=#457B9D;fontColor=#1D3557;fillColor=#A8DADC;entryX=0.533;entryY=0.972;entryDx=0;entryDy=0;entryPerimeter=0;" edge="1" parent="1" target="1RQeHupGN9nbwRqFfmEi-152">
          <mxGeometry width="50" height="50" relative="1" as="geometry">
            <mxPoint x="720" y="3962" as="sourcePoint" />
            <mxPoint x="723" y="1242" as="targetPoint" />
          </mxGeometry>
        </mxCell>
        <mxCell id="1RQeHupGN9nbwRqFfmEi-152" value="" style="html=1;points=[[0,0,0,0,5],[0,1,0,0,-5],[1,0,0,0,5],[1,1,0,0,-5]];perimeter=orthogonalPerimeter;outlineConnect=0;targetShapes=umlLifeline;portConstraint=eastwest;newEdgeStyle={&quot;curved&quot;:0,&quot;rounded&quot;:0};strokeColor=#457B9D;fontColor=#1D3557;fillColor=#A8DADC;" vertex="1" parent="1">
          <mxGeometry x="718" y="1396" width="10" height="28" as="geometry" />
        </mxCell>
        <mxCell id="1RQeHupGN9nbwRqFfmEi-154" value="" style="html=1;points=[[0,0,0,0,5],[0,1,0,0,-5],[1,0,0,0,5],[1,1,0,0,-5]];perimeter=orthogonalPerimeter;outlineConnect=0;targetShapes=umlLifeline;portConstraint=eastwest;newEdgeStyle={&quot;curved&quot;:0,&quot;rounded&quot;:0};strokeColor=#457B9D;fontColor=#1D3557;fillColor=#A8DADC;" vertex="1" parent="1">
          <mxGeometry x="2675" y="1432" width="10" height="28" as="geometry" />
        </mxCell>
        <mxCell id="1RQeHupGN9nbwRqFfmEi-155" value="" style="html=1;points=[[0,0,0,0,5],[0,1,0,0,-5],[1,0,0,0,5],[1,1,0,0,-5]];perimeter=orthogonalPerimeter;outlineConnect=0;targetShapes=umlLifeline;portConstraint=eastwest;newEdgeStyle={&quot;curved&quot;:0,&quot;rounded&quot;:0};strokeColor=#457B9D;fontColor=#1D3557;fillColor=#A8DADC;" vertex="1" parent="1">
          <mxGeometry x="2955" y="1439" width="10" height="39" as="geometry" />
        </mxCell>
        <mxCell id="1RQeHupGN9nbwRqFfmEi-157" value="" style="endArrow=none;dashed=1;html=1;dashPattern=1 3;strokeWidth=2;rounded=0;strokeColor=#457B9D;fontColor=#1D3557;fillColor=#A8DADC;entryX=0.5;entryY=1;entryDx=0;entryDy=0;" edge="1" parent="1" target="1RQeHupGN9nbwRqFfmEi-156">
          <mxGeometry width="50" height="50" relative="1" as="geometry">
            <mxPoint x="1000" y="3961" as="sourcePoint" />
            <mxPoint x="1000" y="138" as="targetPoint" />
          </mxGeometry>
        </mxCell>
        <mxCell id="1RQeHupGN9nbwRqFfmEi-156" value="" style="html=1;points=[[0,0,0,0,5],[0,1,0,0,-5],[1,0,0,0,5],[1,1,0,0,-5]];perimeter=orthogonalPerimeter;outlineConnect=0;targetShapes=umlLifeline;portConstraint=eastwest;newEdgeStyle={&quot;curved&quot;:0,&quot;rounded&quot;:0};strokeColor=#457B9D;fontColor=#1D3557;fillColor=#A8DADC;" vertex="1" parent="1">
          <mxGeometry x="997" y="1481" width="10" height="39" as="geometry" />
        </mxCell>
        <mxCell id="1RQeHupGN9nbwRqFfmEi-159" value="" style="html=1;verticalAlign=bottom;endArrow=block;curved=0;rounded=0;strokeColor=#457B9D;fontColor=#1D3557;fillColor=#A8DADC;" edge="1" parent="1" target="1RQeHupGN9nbwRqFfmEi-158">
          <mxGeometry width="80" relative="1" as="geometry">
            <mxPoint x="2960" y="1560" as="sourcePoint" />
            <mxPoint x="2960" y="1640" as="targetPoint" />
            <Array as="points" />
          </mxGeometry>
        </mxCell>
        <mxCell id="1RQeHupGN9nbwRqFfmEi-158" value="" style="html=1;points=[[0,0,0,0,5],[0,1,0,0,-5],[1,0,0,0,5],[1,1,0,0,-5]];perimeter=orthogonalPerimeter;outlineConnect=0;targetShapes=umlLifeline;portConstraint=eastwest;newEdgeStyle={&quot;curved&quot;:0,&quot;rounded&quot;:0};strokeColor=#457B9D;fontColor=#1D3557;fillColor=#A8DADC;" vertex="1" parent="1">
          <mxGeometry x="2955" y="1562" width="10" height="76" as="geometry" />
        </mxCell>
        <mxCell id="1RQeHupGN9nbwRqFfmEi-160" value="" style="html=1;points=[[0,0,0,0,5],[0,1,0,0,-5],[1,0,0,0,5],[1,1,0,0,-5]];perimeter=orthogonalPerimeter;outlineConnect=0;targetShapes=umlLifeline;portConstraint=eastwest;newEdgeStyle={&quot;curved&quot;:0,&quot;rounded&quot;:0};strokeColor=#457B9D;fontColor=#1D3557;fillColor=#A8DADC;" vertex="1" parent="1">
          <mxGeometry x="2955" y="1672" width="10" height="76" as="geometry" />
        </mxCell>
        <mxCell id="1RQeHupGN9nbwRqFfmEi-161" value="" style="html=1;points=[[0,0,0,0,5],[0,1,0,0,-5],[1,0,0,0,5],[1,1,0,0,-5]];perimeter=orthogonalPerimeter;outlineConnect=0;targetShapes=umlLifeline;portConstraint=eastwest;newEdgeStyle={&quot;curved&quot;:0,&quot;rounded&quot;:0};strokeColor=#457B9D;fontColor=#1D3557;fillColor=#A8DADC;" vertex="1" parent="1">
          <mxGeometry x="2955" y="3241" width="10" height="76" as="geometry" />
        </mxCell>
        <mxCell id="1RQeHupGN9nbwRqFfmEi-100" value="Get Attributes &lt;br&gt;(as first row of file)" style="html=1;verticalAlign=bottom;endArrow=block;curved=0;rounded=0;strokeColor=#457B9D;fontColor=#1D3557;fillColor=#A8DADC;" edge="1" parent="1">
          <mxGeometry width="80" relative="1" as="geometry">
            <mxPoint x="2960" y="1560" as="sourcePoint" />
            <mxPoint x="2960" y="1640" as="targetPoint" />
            <Array as="points">
              <mxPoint x="3000" y="1560" />
              <mxPoint x="3000" y="1640" />
            </Array>
          </mxGeometry>
        </mxCell>
        <mxCell id="1RQeHupGN9nbwRqFfmEi-101" value="Get Names&amp;nbsp;&lt;br&gt;(as first column of file)" style="html=1;verticalAlign=bottom;endArrow=block;curved=0;rounded=0;strokeColor=#457B9D;fontColor=#1D3557;fillColor=#A8DADC;" edge="1" parent="1">
          <mxGeometry width="80" relative="1" as="geometry">
            <mxPoint x="2960" y="1670" as="sourcePoint" />
            <mxPoint x="2960" y="1750" as="targetPoint" />
            <Array as="points">
              <mxPoint x="3000" y="1670" />
              <mxPoint x="3000" y="1750" />
            </Array>
          </mxGeometry>
        </mxCell>
        <mxCell id="1RQeHupGN9nbwRqFfmEi-103" value="Get Values &lt;br&gt;(as everything else from Uploaded File, &lt;br&gt;that was not used before)" style="html=1;verticalAlign=bottom;endArrow=block;curved=0;rounded=0;strokeColor=#457B9D;fontColor=#1D3557;fillColor=#A8DADC;" edge="1" parent="1">
          <mxGeometry x="0.25" y="20" width="80" relative="1" as="geometry">
            <mxPoint x="2960" y="3240" as="sourcePoint" />
            <mxPoint x="2960" y="3320" as="targetPoint" />
            <Array as="points">
              <mxPoint x="3000" y="3240" />
              <mxPoint x="3000" y="3320" />
            </Array>
            <mxPoint as="offset" />
          </mxGeometry>
        </mxCell>
        <mxCell id="1RQeHupGN9nbwRqFfmEi-163" value="" style="endArrow=none;dashed=1;html=1;dashPattern=1 3;strokeWidth=2;rounded=0;strokeColor=#457B9D;fontColor=#1D3557;fillColor=#A8DADC;entryX=0.483;entryY=1;entryDx=0;entryDy=0;entryPerimeter=0;" edge="1" parent="1" source="1RQeHupGN9nbwRqFfmEi-164" target="1RQeHupGN9nbwRqFfmEi-162">
          <mxGeometry width="50" height="50" relative="1" as="geometry">
            <mxPoint x="1559" y="3940" as="sourcePoint" />
            <mxPoint x="1559" y="1592" as="targetPoint" />
          </mxGeometry>
        </mxCell>
        <mxCell id="1RQeHupGN9nbwRqFfmEi-162" value="" style="html=1;points=[[0,0,0,0,5],[0,1,0,0,-5],[1,0,0,0,5],[1,1,0,0,-5]];perimeter=orthogonalPerimeter;outlineConnect=0;targetShapes=umlLifeline;portConstraint=eastwest;newEdgeStyle={&quot;curved&quot;:0,&quot;rounded&quot;:0};strokeColor=#457B9D;fontColor=#1D3557;fillColor=#A8DADC;" vertex="1" parent="1">
          <mxGeometry x="1555" y="3361" width="10" height="60" as="geometry" />
        </mxCell>
        <mxCell id="1RQeHupGN9nbwRqFfmEi-165" value="" style="endArrow=none;dashed=1;html=1;dashPattern=1 3;strokeWidth=2;rounded=0;strokeColor=#457B9D;fontColor=#1D3557;fillColor=#A8DADC;entryX=0.483;entryY=1;entryDx=0;entryDy=0;entryPerimeter=0;" edge="1" parent="1" target="1RQeHupGN9nbwRqFfmEi-164">
          <mxGeometry width="50" height="50" relative="1" as="geometry">
            <mxPoint x="1560" y="3962" as="sourcePoint" />
            <mxPoint x="1560" y="2981" as="targetPoint" />
          </mxGeometry>
        </mxCell>
        <mxCell id="1RQeHupGN9nbwRqFfmEi-164" value="" style="html=1;points=[[0,0,0,0,5],[0,1,0,0,-5],[1,0,0,0,5],[1,1,0,0,-5]];perimeter=orthogonalPerimeter;outlineConnect=0;targetShapes=umlLifeline;portConstraint=eastwest;newEdgeStyle={&quot;curved&quot;:0,&quot;rounded&quot;:0};strokeColor=#457B9D;fontColor=#1D3557;fillColor=#A8DADC;" vertex="1" parent="1">
          <mxGeometry x="1555" y="3441" width="10" height="31" as="geometry" />
        </mxCell>
        <mxCell id="1RQeHupGN9nbwRqFfmEi-166" value="" style="html=1;points=[[0,0,0,0,5],[0,1,0,0,-5],[1,0,0,0,5],[1,1,0,0,-5]];perimeter=orthogonalPerimeter;outlineConnect=0;targetShapes=umlLifeline;portConstraint=eastwest;newEdgeStyle={&quot;curved&quot;:0,&quot;rounded&quot;:0};strokeColor=#457B9D;fontColor=#1D3557;fillColor=#A8DADC;" vertex="1" parent="1">
          <mxGeometry x="2675" y="3460" width="10" height="41" as="geometry" />
        </mxCell>
        <mxCell id="1RQeHupGN9nbwRqFfmEi-168" value="" style="html=1;points=[[0,0,0,0,5],[0,1,0,0,-5],[1,0,0,0,5],[1,1,0,0,-5]];perimeter=orthogonalPerimeter;outlineConnect=0;targetShapes=umlLifeline;portConstraint=eastwest;newEdgeStyle={&quot;curved&quot;:0,&quot;rounded&quot;:0};strokeColor=#457B9D;fontColor=#1D3557;fillColor=#A8DADC;" vertex="1" parent="1">
          <mxGeometry x="2677" y="3627" width="10" height="21" as="geometry" />
        </mxCell>
        <mxCell id="1RQeHupGN9nbwRqFfmEi-115" value="Add task to self to Create Complaint Recipient &lt;br&gt;(Role) - &amp;nbsp;&#39;Admin&#39;, Theme - &quot;Uploading to Files DB Fail&quot;, &lt;br&gt;Complaint - &#39;Task id&#39;, &#39;File Path&#39;, &#39;Uploader (Login)&#39;, &lt;br&gt;&#39;Department&#39;, &#39;Document Type&#39; Sender - &#39;Task Manager&#39;" style="html=1;verticalAlign=bottom;endArrow=block;curved=0;rounded=0;strokeColor=#457B9D;fontColor=#1D3557;fillColor=#A8DADC;" edge="1" parent="1">
          <mxGeometry width="80" relative="1" as="geometry">
            <mxPoint x="2960" y="3641" as="sourcePoint" />
            <mxPoint x="2680" y="3641" as="targetPoint" />
            <mxPoint as="offset" />
          </mxGeometry>
        </mxCell>
        <mxCell id="1RQeHupGN9nbwRqFfmEi-170" value="" style="endArrow=none;dashed=1;html=1;dashPattern=1 3;strokeWidth=2;rounded=0;strokeColor=#457B9D;fontColor=#1D3557;fillColor=#A8DADC;entryX=0.483;entryY=1;entryDx=0;entryDy=0;entryPerimeter=0;" edge="1" parent="1" source="1RQeHupGN9nbwRqFfmEi-177" target="1RQeHupGN9nbwRqFfmEi-169">
          <mxGeometry width="50" height="50" relative="1" as="geometry">
            <mxPoint x="2959" y="3940" as="sourcePoint" />
            <mxPoint x="2959" y="1592" as="targetPoint" />
          </mxGeometry>
        </mxCell>
        <mxCell id="1RQeHupGN9nbwRqFfmEi-171" value="" style="html=1;points=[[0,0,0,0,5],[0,1,0,0,-5],[1,0,0,0,5],[1,1,0,0,-5]];perimeter=orthogonalPerimeter;outlineConnect=0;targetShapes=umlLifeline;portConstraint=eastwest;newEdgeStyle={&quot;curved&quot;:0,&quot;rounded&quot;:0};strokeColor=#457B9D;fontColor=#1D3557;fillColor=#A8DADC;" vertex="1" parent="1">
          <mxGeometry x="2115" y="3721" width="10" height="40" as="geometry" />
        </mxCell>
        <mxCell id="1RQeHupGN9nbwRqFfmEi-173" value="" style="endArrow=none;dashed=1;html=1;dashPattern=1 3;strokeWidth=2;rounded=0;strokeColor=#457B9D;fontColor=#1D3557;fillColor=#A8DADC;entryX=0.5;entryY=1;entryDx=0;entryDy=0;" edge="1" parent="1" target="1RQeHupGN9nbwRqFfmEi-172">
          <mxGeometry width="50" height="50" relative="1" as="geometry">
            <mxPoint x="1840" y="3500" as="sourcePoint" />
            <mxPoint x="1840" y="1150" as="targetPoint" />
          </mxGeometry>
        </mxCell>
        <mxCell id="1RQeHupGN9nbwRqFfmEi-172" value="" style="html=1;points=[[0,0,0,0,5],[0,1,0,0,-5],[1,0,0,0,5],[1,1,0,0,-5]];perimeter=orthogonalPerimeter;outlineConnect=0;targetShapes=umlLifeline;portConstraint=eastwest;newEdgeStyle={&quot;curved&quot;:0,&quot;rounded&quot;:0};strokeColor=#457B9D;fontColor=#1D3557;fillColor=#A8DADC;" vertex="1" parent="1">
          <mxGeometry x="1835" y="3746" width="10" height="22" as="geometry" />
        </mxCell>
        <mxCell id="1RQeHupGN9nbwRqFfmEi-174" value="" style="html=1;points=[[0,0,0,0,5],[0,1,0,0,-5],[1,0,0,0,5],[1,1,0,0,-5]];perimeter=orthogonalPerimeter;outlineConnect=0;targetShapes=umlLifeline;portConstraint=eastwest;newEdgeStyle={&quot;curved&quot;:0,&quot;rounded&quot;:0};strokeColor=#457B9D;fontColor=#1D3557;fillColor=#A8DADC;" vertex="1" parent="1">
          <mxGeometry x="2115" y="3781" width="10" height="22" as="geometry" />
        </mxCell>
        <mxCell id="1RQeHupGN9nbwRqFfmEi-176" value="" style="html=1;points=[[0,0,0,0,5],[0,1,0,0,-5],[1,0,0,0,5],[1,1,0,0,-5]];perimeter=orthogonalPerimeter;outlineConnect=0;targetShapes=umlLifeline;portConstraint=eastwest;newEdgeStyle={&quot;curved&quot;:0,&quot;rounded&quot;:0};strokeColor=#457B9D;fontColor=#1D3557;fillColor=#A8DADC;" vertex="1" parent="1">
          <mxGeometry x="2675" y="3801" width="10" height="37" as="geometry" />
        </mxCell>
        <mxCell id="1RQeHupGN9nbwRqFfmEi-178" value="" style="endArrow=none;dashed=1;html=1;dashPattern=1 3;strokeWidth=2;rounded=0;strokeColor=#457B9D;fontColor=#1D3557;fillColor=#A8DADC;" edge="1" parent="1">
          <mxGeometry width="50" height="50" relative="1" as="geometry">
            <mxPoint x="2959" y="3500" as="sourcePoint" />
            <mxPoint x="2960" y="3960" as="targetPoint" />
          </mxGeometry>
        </mxCell>
        <mxCell id="1RQeHupGN9nbwRqFfmEi-177" value="" style="html=1;points=[[0,0,0,0,5],[0,1,0,0,-5],[1,0,0,0,5],[1,1,0,0,-5]];perimeter=orthogonalPerimeter;outlineConnect=0;targetShapes=umlLifeline;portConstraint=eastwest;newEdgeStyle={&quot;curved&quot;:0,&quot;rounded&quot;:0};strokeColor=#457B9D;fontColor=#1D3557;fillColor=#A8DADC;" vertex="1" parent="1">
          <mxGeometry x="2953" y="3839" width="10" height="21" as="geometry" />
        </mxCell>
        <mxCell id="1RQeHupGN9nbwRqFfmEi-22" value="Opt" style="shape=umlFrame;whiteSpace=wrap;html=1;pointerEvents=0;strokeColor=#457B9D;fontColor=#1D3557;fillColor=#A8DADC;" vertex="1" parent="1">
          <mxGeometry x="132" y="742" width="330" height="150" as="geometry" />
        </mxCell>
        <mxCell id="1RQeHupGN9nbwRqFfmEi-26" value="[Table for Users Department - Exist]" style="text;html=1;strokeColor=none;fillColor=none;align=center;verticalAlign=middle;whiteSpace=wrap;rounded=0;fontColor=#1D3557;fontStyle=1" vertex="1" parent="1">
          <mxGeometry x="192" y="752" width="225" height="30" as="geometry" />
        </mxCell>
        <mxCell id="1RQeHupGN9nbwRqFfmEi-56" value="Alt" style="shape=umlFrame;whiteSpace=wrap;html=1;pointerEvents=0;strokeColor=#457B9D;fontColor=#1D3557;fillColor=#A8DADC;" vertex="1" parent="1">
          <mxGeometry x="120" y="1274" width="3200" height="2586" as="geometry" />
        </mxCell>
        <mxCell id="1RQeHupGN9nbwRqFfmEi-57" value="[Upload Failed]" style="text;html=1;strokeColor=none;fillColor=none;align=center;verticalAlign=middle;whiteSpace=wrap;rounded=0;fontColor=#1D3557;" vertex="1" parent="1">
          <mxGeometry x="175" y="1284" width="130" height="20" as="geometry" />
        </mxCell>
        <mxCell id="1RQeHupGN9nbwRqFfmEi-61" value="[Upload Done Successfully]" style="text;html=1;strokeColor=none;fillColor=none;align=center;verticalAlign=middle;whiteSpace=wrap;rounded=0;fontColor=#1D3557;" vertex="1" parent="1">
          <mxGeometry x="110" y="1384" width="220" height="0.5" as="geometry" />
        </mxCell>
        <mxCell id="1RQeHupGN9nbwRqFfmEi-62" value="" style="endArrow=none;dashed=1;html=1;rounded=0;strokeColor=#457B9D;fontColor=#1D3557;fillColor=#A8DADC;exitX=-0.001;exitY=0.108;exitDx=0;exitDy=0;exitPerimeter=0;entryX=1;entryY=0.11;entryDx=0;entryDy=0;entryPerimeter=0;" edge="1" parent="1">
          <mxGeometry width="50" height="50" relative="1" as="geometry">
            <mxPoint x="117.07999999999993" y="1359.9980000000003" as="sourcePoint" />
            <mxPoint x="3040" y="1362.3700000000001" as="targetPoint" />
          </mxGeometry>
        </mxCell>
        <mxCell id="1RQeHupGN9nbwRqFfmEi-93" value="Opt" style="shape=umlFrame;whiteSpace=wrap;html=1;pointerEvents=0;strokeColor=#457B9D;fontColor=#1D3557;fillColor=#A8DADC;" vertex="1" parent="1">
          <mxGeometry x="650" y="982" width="270" height="180" as="geometry" />
        </mxCell>
        <mxCell id="1RQeHupGN9nbwRqFfmEi-96" value="[Convert Type]" style="text;html=1;strokeColor=none;fillColor=none;align=center;verticalAlign=middle;whiteSpace=wrap;rounded=0;fontColor=#1D3557;fontStyle=1" vertex="1" parent="1">
          <mxGeometry x="654" y="986" width="225" height="30" as="geometry" />
        </mxCell>
        <mxCell id="1RQeHupGN9nbwRqFfmEi-108" value="loop" style="shape=umlFrame;whiteSpace=wrap;html=1;pointerEvents=0;strokeColor=#457B9D;fontColor=#1D3557;fillColor=#A8DADC;" vertex="1" parent="1">
          <mxGeometry x="860" y="1450" width="2420" height="2100" as="geometry" />
        </mxCell>
        <mxCell id="1RQeHupGN9nbwRqFfmEi-109" value="[While Transaction Fails and Limit of Tries not Exceeded yet]" style="text;html=1;strokeColor=none;fillColor=none;align=center;verticalAlign=middle;whiteSpace=wrap;rounded=0;fontColor=#1D3557;" vertex="1" parent="1">
          <mxGeometry x="930" y="1530" width="180" height="30" as="geometry" />
        </mxCell>
        <mxCell id="1RQeHupGN9nbwRqFfmEi-114" value="opt" style="shape=umlFrame;whiteSpace=wrap;html=1;pointerEvents=0;strokeColor=#457B9D;fontColor=#1D3557;fillColor=#A8DADC;" vertex="1" parent="1">
          <mxGeometry x="1760" y="3580" width="1300" height="280" as="geometry" />
        </mxCell>
        <mxCell id="1RQeHupGN9nbwRqFfmEi-125" value="[&#39;Add New Data&#39; Transaction Failed]" style="text;html=1;strokeColor=none;fillColor=none;align=center;verticalAlign=middle;whiteSpace=wrap;rounded=0;fontColor=#1D3557;" vertex="1" parent="1">
          <mxGeometry x="1820" y="3590" width="230" height="20" as="geometry" />
        </mxCell>
        <mxCell id="1RQeHupGN9nbwRqFfmEi-126" value="loop" style="shape=umlFrame;whiteSpace=wrap;html=1;pointerEvents=0;strokeColor=#457B9D;fontColor=#1D3557;fillColor=#A8DADC;" vertex="1" parent="1">
          <mxGeometry x="1760" y="3660" width="1280" height="200" as="geometry" />
        </mxCell>
        <mxCell id="1RQeHupGN9nbwRqFfmEi-127" value="[while transaction Fails]" style="text;html=1;strokeColor=none;fillColor=none;align=center;verticalAlign=middle;whiteSpace=wrap;rounded=0;fontColor=#1D3557;" vertex="1" parent="1">
          <mxGeometry x="1780" y="3680" width="230" height="20" as="geometry" />
        </mxCell>
        <mxCell id="1RQeHupGN9nbwRqFfmEi-38" value="Try to Find Table with Selected &#39;Name&#39;" style="html=1;verticalAlign=bottom;endArrow=block;curved=0;rounded=0;strokeColor=#457B9D;fontColor=#1D3557;fillColor=#A8DADC;" edge="1" parent="1">
          <mxGeometry width="80" relative="1" as="geometry">
            <mxPoint x="2402" y="572" as="sourcePoint" />
            <mxPoint x="2402" y="662" as="targetPoint" />
            <Array as="points">
              <mxPoint x="2482" y="572" />
              <mxPoint x="2482" y="662" />
            </Array>
          </mxGeometry>
        </mxCell>
        <mxCell id="1RQeHupGN9nbwRqFfmEi-179" value="Get All &#39;Current_Positions.Name&#39;, &#39;Position_Attributes.Name&#39; for Current Department" style="html=1;verticalAlign=bottom;endArrow=block;curved=0;rounded=0;strokeColor=#457B9D;fontColor=#1D3557;fillColor=#A8DADC;" edge="1" parent="1">
          <mxGeometry width="80" relative="1" as="geometry">
            <mxPoint x="2960" y="1823" as="sourcePoint" />
            <mxPoint x="2400" y="1823" as="targetPoint" />
          </mxGeometry>
        </mxCell>
        <mxCell id="1RQeHupGN9nbwRqFfmEi-180" value="Send All &#39;Current_Positions.Name&#39;, &#39;Position_Attributes.Name&#39; for Current Department" style="html=1;verticalAlign=bottom;endArrow=block;curved=0;rounded=0;strokeColor=#457B9D;fontColor=#1D3557;fillColor=#A8DADC;" edge="1" parent="1">
          <mxGeometry width="80" relative="1" as="geometry">
            <mxPoint x="2400" y="1863" as="sourcePoint" />
            <mxPoint x="2960" y="1863" as="targetPoint" />
          </mxGeometry>
        </mxCell>
        <mxCell id="1RQeHupGN9nbwRqFfmEi-182" value="Opt" style="shape=umlFrame;whiteSpace=wrap;html=1;pointerEvents=0;strokeColor=#457B9D;fontColor=#1D3557;fillColor=#A8DADC;" vertex="1" parent="1">
          <mxGeometry x="1760" y="1770" width="1360" height="760" as="geometry" />
        </mxCell>
        <mxCell id="1RQeHupGN9nbwRqFfmEi-183" value="[if Department Table Exist]" style="text;html=1;strokeColor=none;fillColor=none;align=center;verticalAlign=middle;whiteSpace=wrap;rounded=0;fontColor=#1D3557;" vertex="1" parent="1">
          <mxGeometry x="1830" y="1780" width="160" height="20" as="geometry" />
        </mxCell>
        <mxCell id="1RQeHupGN9nbwRqFfmEi-185" value="Get &#39;Limits.Max&#39;, &#39;Limits.Min&#39;, &#39;Limits.Start_Date&#39;, &#39;Limits.End_Date&#39;&amp;nbsp;&lt;br&gt;for each non unique Position" style="html=1;verticalAlign=bottom;endArrow=block;curved=0;rounded=0;strokeColor=#457B9D;fontColor=#1D3557;fillColor=#A8DADC;" edge="1" parent="1">
          <mxGeometry width="80" relative="1" as="geometry">
            <mxPoint x="2960" y="1980" as="sourcePoint" />
            <mxPoint x="2400" y="1980" as="targetPoint" />
          </mxGeometry>
        </mxCell>
        <mxCell id="1RQeHupGN9nbwRqFfmEi-186" value="Send &#39;Limits.Max&#39;, &#39;Limits.Min&#39;, &#39;Limits.Start_Date&#39;, &#39;Limits.End_Date&#39;&amp;nbsp;&lt;br&gt;for each non unique Position" style="html=1;verticalAlign=bottom;endArrow=block;curved=0;rounded=0;strokeColor=#457B9D;fontColor=#1D3557;fillColor=#A8DADC;" edge="1" parent="1">
          <mxGeometry width="80" relative="1" as="geometry">
            <mxPoint x="2400" y="2030" as="sourcePoint" />
            <mxPoint x="2960" y="2030" as="targetPoint" />
          </mxGeometry>
        </mxCell>
        <mxCell id="1RQeHupGN9nbwRqFfmEi-189" value="Opt" style="shape=umlFrame;whiteSpace=wrap;html=1;pointerEvents=0;strokeColor=#457B9D;fontColor=#1D3557;fillColor=#A8DADC;" vertex="1" parent="1">
          <mxGeometry x="1760" y="2268" width="1300" height="370" as="geometry" />
        </mxCell>
        <mxCell id="1RQeHupGN9nbwRqFfmEi-191" value="[if Upload Type - &#39;Write-Off&#39; and There is Unique Positions]" style="text;html=1;strokeColor=none;fillColor=none;align=center;verticalAlign=middle;whiteSpace=wrap;rounded=0;fontColor=#1D3557;" vertex="1" parent="1">
          <mxGeometry x="1835" y="2288" width="200" height="20" as="geometry" />
        </mxCell>
        <mxCell id="1RQeHupGN9nbwRqFfmEi-193" value="Add New &#39;Complaint&#39;" style="html=1;verticalAlign=bottom;endArrow=block;curved=0;rounded=0;strokeColor=#457B9D;fontColor=#1D3557;fillColor=#A8DADC;" edge="1" parent="1">
          <mxGeometry width="80" relative="1" as="geometry">
            <mxPoint x="2120" y="2537" as="sourcePoint" />
            <mxPoint x="1840" y="2537" as="targetPoint" />
          </mxGeometry>
        </mxCell>
        <mxCell id="1RQeHupGN9nbwRqFfmEi-194" value="Task to Create Complaint sent" style="html=1;verticalAlign=bottom;endArrow=block;curved=0;rounded=0;strokeColor=#457B9D;fontColor=#1D3557;fillColor=#A8DADC;" edge="1" parent="1">
          <mxGeometry width="80" relative="1" as="geometry">
            <mxPoint x="2680" y="2457" as="sourcePoint" />
            <mxPoint x="2960" y="2457" as="targetPoint" />
            <mxPoint as="offset" />
          </mxGeometry>
        </mxCell>
        <mxCell id="1RQeHupGN9nbwRqFfmEi-195" value="&amp;nbsp;Send &#39;Complaint&#39; and its creation &#39;Task id&#39;" style="html=1;verticalAlign=bottom;endArrow=block;curved=0;rounded=0;strokeColor=#457B9D;fontColor=#1D3557;fillColor=#A8DADC;" edge="1" parent="1">
          <mxGeometry width="80" relative="1" as="geometry">
            <mxPoint x="2960" y="2497" as="sourcePoint" />
            <mxPoint x="2120" y="2497" as="targetPoint" />
          </mxGeometry>
        </mxCell>
        <mxCell id="1RQeHupGN9nbwRqFfmEi-196" value="Send Transaction Result with &#39;Task id&#39;" style="html=1;verticalAlign=bottom;endArrow=block;curved=0;rounded=0;strokeColor=#457B9D;fontColor=#1D3557;fillColor=#A8DADC;" edge="1" parent="1">
          <mxGeometry width="80" relative="1" as="geometry">
            <mxPoint x="2118" y="2577" as="sourcePoint" />
            <mxPoint x="2680" y="2577" as="targetPoint" />
          </mxGeometry>
        </mxCell>
        <mxCell id="1RQeHupGN9nbwRqFfmEi-197" value="Transaction Result and &#39;Task id&#39; Sent" style="html=1;verticalAlign=bottom;endArrow=block;curved=0;rounded=0;strokeColor=#457B9D;fontColor=#1D3557;fillColor=#A8DADC;" edge="1" parent="1">
          <mxGeometry width="80" relative="1" as="geometry">
            <mxPoint x="2680" y="2617" as="sourcePoint" />
            <mxPoint x="2960" y="2617" as="targetPoint" />
            <mxPoint as="offset" />
          </mxGeometry>
        </mxCell>
        <mxCell id="1RQeHupGN9nbwRqFfmEi-198" value="" style="html=1;points=[[0,0,0,0,5],[0,1,0,0,-5],[1,0,0,0,5],[1,1,0,0,-5]];perimeter=orthogonalPerimeter;outlineConnect=0;targetShapes=umlLifeline;portConstraint=eastwest;newEdgeStyle={&quot;curved&quot;:0,&quot;rounded&quot;:0};strokeColor=#457B9D;fontColor=#1D3557;fillColor=#A8DADC;" vertex="1" parent="1">
          <mxGeometry x="2677" y="2403" width="10" height="21" as="geometry" />
        </mxCell>
        <mxCell id="1RQeHupGN9nbwRqFfmEi-199" value="Add task to self to Create Complaint Recipient &lt;br&gt;(Login) - &amp;nbsp;&#39;Uploader (Login)&#39;, Theme - &lt;br&gt;&quot;Bad Write-Off Was Uploaded&quot;, &lt;br&gt;Complaint - &quot;Uploaded File -&quot; + &#39;File_Name&#39; + &quot;Contains &lt;br&gt;Invalid Positions or Invalid File Type Was Chosen&quot;&amp;nbsp;&lt;br&gt;Sender - &#39;Task Manager&#39;" style="html=1;verticalAlign=bottom;endArrow=block;curved=0;rounded=0;strokeColor=#457B9D;fontColor=#1D3557;fillColor=#A8DADC;" edge="1" parent="1">
          <mxGeometry width="80" relative="1" as="geometry">
            <mxPoint x="2960" y="2417" as="sourcePoint" />
            <mxPoint x="2680" y="2417" as="targetPoint" />
            <mxPoint as="offset" />
          </mxGeometry>
        </mxCell>
        <mxCell id="1RQeHupGN9nbwRqFfmEi-200" value="" style="endArrow=none;dashed=1;html=1;dashPattern=1 3;strokeWidth=2;rounded=0;strokeColor=#457B9D;fontColor=#1D3557;fillColor=#A8DADC;entryX=0.483;entryY=1;entryDx=0;entryDy=0;entryPerimeter=0;" edge="1" parent="1" source="1RQeHupGN9nbwRqFfmEi-206" target="1RQeHupGN9nbwRqFfmEi-201">
          <mxGeometry width="50" height="50" relative="1" as="geometry">
            <mxPoint x="2959" y="2716" as="sourcePoint" />
            <mxPoint x="2959" y="368" as="targetPoint" />
          </mxGeometry>
        </mxCell>
        <mxCell id="1RQeHupGN9nbwRqFfmEi-201" value="" style="html=1;points=[[0,0,0,0,5],[0,1,0,0,-5],[1,0,0,0,5],[1,1,0,0,-5]];perimeter=orthogonalPerimeter;outlineConnect=0;targetShapes=umlLifeline;portConstraint=eastwest;newEdgeStyle={&quot;curved&quot;:0,&quot;rounded&quot;:0};strokeColor=#457B9D;fontColor=#1D3557;fillColor=#A8DADC;" vertex="1" parent="1">
          <mxGeometry x="2953" y="2456" width="10" height="41" as="geometry" />
        </mxCell>
        <mxCell id="1RQeHupGN9nbwRqFfmEi-202" value="" style="html=1;points=[[0,0,0,0,5],[0,1,0,0,-5],[1,0,0,0,5],[1,1,0,0,-5]];perimeter=orthogonalPerimeter;outlineConnect=0;targetShapes=umlLifeline;portConstraint=eastwest;newEdgeStyle={&quot;curved&quot;:0,&quot;rounded&quot;:0};strokeColor=#457B9D;fontColor=#1D3557;fillColor=#A8DADC;" vertex="1" parent="1">
          <mxGeometry x="2115" y="2497" width="10" height="40" as="geometry" />
        </mxCell>
        <mxCell id="1RQeHupGN9nbwRqFfmEi-203" value="" style="html=1;points=[[0,0,0,0,5],[0,1,0,0,-5],[1,0,0,0,5],[1,1,0,0,-5]];perimeter=orthogonalPerimeter;outlineConnect=0;targetShapes=umlLifeline;portConstraint=eastwest;newEdgeStyle={&quot;curved&quot;:0,&quot;rounded&quot;:0};strokeColor=#457B9D;fontColor=#1D3557;fillColor=#A8DADC;" vertex="1" parent="1">
          <mxGeometry x="1835" y="2522" width="10" height="22" as="geometry" />
        </mxCell>
        <mxCell id="1RQeHupGN9nbwRqFfmEi-204" value="" style="html=1;points=[[0,0,0,0,5],[0,1,0,0,-5],[1,0,0,0,5],[1,1,0,0,-5]];perimeter=orthogonalPerimeter;outlineConnect=0;targetShapes=umlLifeline;portConstraint=eastwest;newEdgeStyle={&quot;curved&quot;:0,&quot;rounded&quot;:0};strokeColor=#457B9D;fontColor=#1D3557;fillColor=#A8DADC;" vertex="1" parent="1">
          <mxGeometry x="2115" y="2557" width="10" height="22" as="geometry" />
        </mxCell>
        <mxCell id="1RQeHupGN9nbwRqFfmEi-205" value="" style="html=1;points=[[0,0,0,0,5],[0,1,0,0,-5],[1,0,0,0,5],[1,1,0,0,-5]];perimeter=orthogonalPerimeter;outlineConnect=0;targetShapes=umlLifeline;portConstraint=eastwest;newEdgeStyle={&quot;curved&quot;:0,&quot;rounded&quot;:0};strokeColor=#457B9D;fontColor=#1D3557;fillColor=#A8DADC;" vertex="1" parent="1">
          <mxGeometry x="2675" y="2577" width="10" height="37" as="geometry" />
        </mxCell>
        <mxCell id="1RQeHupGN9nbwRqFfmEi-206" value="" style="html=1;points=[[0,0,0,0,5],[0,1,0,0,-5],[1,0,0,0,5],[1,1,0,0,-5]];perimeter=orthogonalPerimeter;outlineConnect=0;targetShapes=umlLifeline;portConstraint=eastwest;newEdgeStyle={&quot;curved&quot;:0,&quot;rounded&quot;:0};strokeColor=#457B9D;fontColor=#1D3557;fillColor=#A8DADC;" vertex="1" parent="1">
          <mxGeometry x="2953" y="2615" width="10" height="21" as="geometry" />
        </mxCell>
        <mxCell id="1RQeHupGN9nbwRqFfmEi-207" value="loop" style="shape=umlFrame;whiteSpace=wrap;html=1;pointerEvents=0;strokeColor=#457B9D;fontColor=#1D3557;fillColor=#A8DADC;" vertex="1" parent="1">
          <mxGeometry x="1760" y="2436" width="1280" height="202" as="geometry" />
        </mxCell>
        <mxCell id="1RQeHupGN9nbwRqFfmEi-208" value="[while transaction Fails]" style="text;html=1;strokeColor=none;fillColor=none;align=center;verticalAlign=middle;whiteSpace=wrap;rounded=0;fontColor=#1D3557;" vertex="1" parent="1">
          <mxGeometry x="1790" y="2449" width="230" height="20" as="geometry" />
        </mxCell>
        <mxCell id="1RQeHupGN9nbwRqFfmEi-209" value="Global&lt;br&gt;DB" style="ellipse;shape=umlEntity;whiteSpace=wrap;html=1;strokeColor=#457B9D;fontColor=#1D3557;fillColor=#A8DADC;" vertex="1" parent="1">
          <mxGeometry x="3210" y="60" width="60" height="68" as="geometry" />
        </mxCell>
        <mxCell id="1RQeHupGN9nbwRqFfmEi-210" value="" style="endArrow=none;dashed=1;html=1;dashPattern=1 3;strokeWidth=2;rounded=0;strokeColor=#457B9D;fontColor=#1D3557;fillColor=#A8DADC;entryX=0.5;entryY=1;entryDx=0;entryDy=0;" edge="1" parent="1" target="1RQeHupGN9nbwRqFfmEi-209" source="1RQeHupGN9nbwRqFfmEi-232">
          <mxGeometry width="50" height="50" relative="1" as="geometry">
            <mxPoint x="3240" y="3960" as="sourcePoint" />
            <mxPoint x="3240" y="150" as="targetPoint" />
          </mxGeometry>
        </mxCell>
        <mxCell id="1RQeHupGN9nbwRqFfmEi-211" value="Opt" style="shape=umlFrame;whiteSpace=wrap;html=1;pointerEvents=0;strokeColor=#457B9D;fontColor=#1D3557;fillColor=#A8DADC;" vertex="1" parent="1">
          <mxGeometry x="2825" y="2748" width="435" height="450" as="geometry" />
        </mxCell>
        <mxCell id="1RQeHupGN9nbwRqFfmEi-212" value="Get Positions Count" style="html=1;verticalAlign=bottom;endArrow=block;curved=0;rounded=0;strokeColor=#457B9D;fontColor=#1D3557;fillColor=#A8DADC;" edge="1" parent="1">
          <mxGeometry width="80" relative="1" as="geometry">
            <mxPoint x="2957" y="2668" as="sourcePoint" />
            <mxPoint x="3237" y="2668" as="targetPoint" />
            <mxPoint as="offset" />
          </mxGeometry>
        </mxCell>
        <mxCell id="1RQeHupGN9nbwRqFfmEi-213" value="Send Positions Count" style="html=1;verticalAlign=bottom;endArrow=block;curved=0;rounded=0;strokeColor=#457B9D;fontColor=#1D3557;fillColor=#A8DADC;" edge="1" parent="1">
          <mxGeometry width="80" relative="1" as="geometry">
            <mxPoint x="3240" y="2708" as="sourcePoint" />
            <mxPoint x="2960" y="2708" as="targetPoint" />
            <mxPoint as="offset" />
          </mxGeometry>
        </mxCell>
        <mxCell id="1RQeHupGN9nbwRqFfmEi-214" value="Get All &#39;Unique_Positions.Name&#39;&lt;br&gt;&amp;nbsp;&#39;Position_Attributes.Name&#39;" style="html=1;verticalAlign=bottom;endArrow=block;curved=0;rounded=0;strokeColor=#457B9D;fontColor=#1D3557;fillColor=#A8DADC;" edge="1" parent="1">
          <mxGeometry width="80" relative="1" as="geometry">
            <mxPoint x="2960" y="2815" as="sourcePoint" />
            <mxPoint x="3240" y="2815" as="targetPoint" />
            <mxPoint as="offset" />
          </mxGeometry>
        </mxCell>
        <mxCell id="1RQeHupGN9nbwRqFfmEi-215" value="Send All &#39;Unique_Positions.Name&#39;&lt;br&gt;&amp;nbsp;&#39;Position_Attributes.Name&#39;" style="html=1;verticalAlign=bottom;endArrow=block;curved=0;rounded=0;strokeColor=#457B9D;fontColor=#1D3557;fillColor=#A8DADC;" edge="1" parent="1">
          <mxGeometry width="80" relative="1" as="geometry">
            <mxPoint x="3237" y="2868" as="sourcePoint" />
            <mxPoint x="2957" y="2868" as="targetPoint" />
            <mxPoint as="offset" />
          </mxGeometry>
        </mxCell>
        <mxCell id="1RQeHupGN9nbwRqFfmEi-217" value="Get &#39;Limits.Avg_Max&#39;, &#39;Limits.Avg_Min&#39;,&lt;br&gt;&#39;Limits.Start_Date&#39;, &#39;Limits.End_Date&#39;&lt;br&gt;&amp;nbsp; for each matching position" style="html=1;verticalAlign=bottom;endArrow=block;curved=0;rounded=0;strokeColor=#457B9D;fontColor=#1D3557;fillColor=#A8DADC;" edge="1" parent="1">
          <mxGeometry width="80" relative="1" as="geometry">
            <mxPoint x="2960" y="3028" as="sourcePoint" />
            <mxPoint x="3240" y="3028" as="targetPoint" />
          </mxGeometry>
        </mxCell>
        <mxCell id="1RQeHupGN9nbwRqFfmEi-218" value="Send &#39;Limits.Avg_Max&#39;, &#39;Limits.Avg_Min&#39;,&lt;br style=&quot;border-color: var(--border-color);&quot;&gt;&#39;Limits.Start_Date&#39;, &#39;Limits.End_Date&#39;&lt;br style=&quot;border-color: var(--border-color);&quot;&gt;&amp;nbsp; for each matching position" style="html=1;verticalAlign=bottom;endArrow=block;curved=0;rounded=0;strokeColor=#457B9D;fontColor=#1D3557;fillColor=#A8DADC;" edge="1" parent="1">
          <mxGeometry width="80" relative="1" as="geometry">
            <mxPoint x="3243" y="3078" as="sourcePoint" />
            <mxPoint x="2963" y="3078" as="targetPoint" />
          </mxGeometry>
        </mxCell>
        <mxCell id="1RQeHupGN9nbwRqFfmEi-222" value="[If Count is not 0]" style="text;html=1;strokeColor=none;fillColor=none;align=center;verticalAlign=middle;whiteSpace=wrap;rounded=0;fontColor=#1D3557;" vertex="1" parent="1">
          <mxGeometry x="2820" y="2758" width="230" height="20" as="geometry" />
        </mxCell>
        <mxCell id="1RQeHupGN9nbwRqFfmEi-225" value="" style="endArrow=none;dashed=1;html=1;dashPattern=1 3;strokeWidth=2;rounded=0;strokeColor=#457B9D;fontColor=#1D3557;fillColor=#A8DADC;entryX=0.4;entryY=1.091;entryDx=0;entryDy=0;entryPerimeter=0;" edge="1" parent="1" target="1RQeHupGN9nbwRqFfmEi-172">
          <mxGeometry width="50" height="50" relative="1" as="geometry">
            <mxPoint x="1840" y="3960" as="sourcePoint" />
            <mxPoint x="1870" y="3960" as="targetPoint" />
          </mxGeometry>
        </mxCell>
        <mxCell id="1RQeHupGN9nbwRqFfmEi-226" value="" style="html=1;points=[[0,0,0,0,5],[0,1,0,0,-5],[1,0,0,0,5],[1,1,0,0,-5]];perimeter=orthogonalPerimeter;outlineConnect=0;targetShapes=umlLifeline;portConstraint=eastwest;newEdgeStyle={&quot;curved&quot;:0,&quot;rounded&quot;:0};strokeColor=#457B9D;fontColor=#1D3557;fillColor=#A8DADC;" vertex="1" parent="1">
          <mxGeometry x="2395" y="1820" width="10" height="40" as="geometry" />
        </mxCell>
        <mxCell id="1RQeHupGN9nbwRqFfmEi-227" value="" style="html=1;points=[[0,0,0,0,5],[0,1,0,0,-5],[1,0,0,0,5],[1,1,0,0,-5]];perimeter=orthogonalPerimeter;outlineConnect=0;targetShapes=umlLifeline;portConstraint=eastwest;newEdgeStyle={&quot;curved&quot;:0,&quot;rounded&quot;:0};strokeColor=#457B9D;fontColor=#1D3557;fillColor=#A8DADC;" vertex="1" parent="1">
          <mxGeometry x="2953" y="1880" width="10" height="80" as="geometry" />
        </mxCell>
        <mxCell id="1RQeHupGN9nbwRqFfmEi-181" value="Define Uniqueness of Each &lt;br&gt;Position to Current Department&lt;br&gt;(Compare Names and Attributes from&lt;br&gt;&amp;nbsp;DB and Uploaded File)" style="html=1;verticalAlign=bottom;endArrow=block;curved=0;rounded=0;strokeColor=#457B9D;fontColor=#1D3557;fillColor=#A8DADC;" edge="1" parent="1">
          <mxGeometry x="0.375" y="5" width="80" relative="1" as="geometry">
            <mxPoint x="2959" y="1883" as="sourcePoint" />
            <mxPoint x="2959" y="1963" as="targetPoint" />
            <Array as="points">
              <mxPoint x="2999" y="1883" />
              <mxPoint x="2999" y="1963" />
            </Array>
            <mxPoint as="offset" />
          </mxGeometry>
        </mxCell>
        <mxCell id="1RQeHupGN9nbwRqFfmEi-228" value="" style="html=1;points=[[0,0,0,0,5],[0,1,0,0,-5],[1,0,0,0,5],[1,1,0,0,-5]];perimeter=orthogonalPerimeter;outlineConnect=0;targetShapes=umlLifeline;portConstraint=eastwest;newEdgeStyle={&quot;curved&quot;:0,&quot;rounded&quot;:0};strokeColor=#457B9D;fontColor=#1D3557;fillColor=#A8DADC;" vertex="1" parent="1">
          <mxGeometry x="2395" y="1980" width="10" height="50" as="geometry" />
        </mxCell>
        <mxCell id="1RQeHupGN9nbwRqFfmEi-229" value="" style="html=1;points=[[0,0,0,0,5],[0,1,0,0,-5],[1,0,0,0,5],[1,1,0,0,-5]];perimeter=orthogonalPerimeter;outlineConnect=0;targetShapes=umlLifeline;portConstraint=eastwest;newEdgeStyle={&quot;curved&quot;:0,&quot;rounded&quot;:0};strokeColor=#457B9D;fontColor=#1D3557;fillColor=#A8DADC;" vertex="1" parent="1">
          <mxGeometry x="2955" y="2060" width="10" height="80" as="geometry" />
        </mxCell>
        <mxCell id="1RQeHupGN9nbwRqFfmEi-224" value="Save Received Values as&lt;br&gt;Limits for not unique positions" style="html=1;verticalAlign=bottom;endArrow=block;curved=0;rounded=0;strokeColor=#457B9D;fontColor=#1D3557;fillColor=#A8DADC;" edge="1" parent="1">
          <mxGeometry x="0.1875" y="8" width="80" relative="1" as="geometry">
            <mxPoint x="2962" y="2058" as="sourcePoint" />
            <mxPoint x="2962" y="2138" as="targetPoint" />
            <Array as="points">
              <mxPoint x="3002" y="2058" />
              <mxPoint x="3002" y="2138" />
            </Array>
            <mxPoint as="offset" />
          </mxGeometry>
        </mxCell>
        <mxCell id="1RQeHupGN9nbwRqFfmEi-230" value="" style="html=1;points=[[0,0,0,0,5],[0,1,0,0,-5],[1,0,0,0,5],[1,1,0,0,-5]];perimeter=orthogonalPerimeter;outlineConnect=0;targetShapes=umlLifeline;portConstraint=eastwest;newEdgeStyle={&quot;curved&quot;:0,&quot;rounded&quot;:0};strokeColor=#457B9D;fontColor=#1D3557;fillColor=#A8DADC;" vertex="1" parent="1">
          <mxGeometry x="2955" y="2160" width="10" height="80" as="geometry" />
        </mxCell>
        <mxCell id="1RQeHupGN9nbwRqFfmEi-231" value="" style="html=1;points=[[0,0,0,0,5],[0,1,0,0,-5],[1,0,0,0,5],[1,1,0,0,-5]];perimeter=orthogonalPerimeter;outlineConnect=0;targetShapes=umlLifeline;portConstraint=eastwest;newEdgeStyle={&quot;curved&quot;:0,&quot;rounded&quot;:0};strokeColor=#457B9D;fontColor=#1D3557;fillColor=#A8DADC;" vertex="1" parent="1">
          <mxGeometry x="2955" y="2296" width="10" height="80" as="geometry" />
        </mxCell>
        <mxCell id="1RQeHupGN9nbwRqFfmEi-187" value="Check if There any Unique &lt;br&gt;Positions in Uploaded File" style="html=1;verticalAlign=bottom;endArrow=block;curved=0;rounded=0;strokeColor=#457B9D;fontColor=#1D3557;fillColor=#A8DADC;" edge="1" parent="1">
          <mxGeometry x="0.1875" y="8" width="80" relative="1" as="geometry">
            <mxPoint x="2962" y="2163" as="sourcePoint" />
            <mxPoint x="2962" y="2243" as="targetPoint" />
            <Array as="points">
              <mxPoint x="3002" y="2163" />
              <mxPoint x="3002" y="2243" />
            </Array>
            <mxPoint as="offset" />
          </mxGeometry>
        </mxCell>
        <mxCell id="1RQeHupGN9nbwRqFfmEi-192" value="Change Order Type &lt;br&gt;to &#39;Write-Off_Bad&#39;" style="html=1;verticalAlign=bottom;endArrow=block;curved=0;rounded=0;strokeColor=#457B9D;fontColor=#1D3557;fillColor=#A8DADC;" edge="1" parent="1">
          <mxGeometry x="0.1875" y="8" width="80" relative="1" as="geometry">
            <mxPoint x="2961" y="2295" as="sourcePoint" />
            <mxPoint x="2961" y="2375" as="targetPoint" />
            <Array as="points">
              <mxPoint x="3001" y="2295" />
              <mxPoint x="3001" y="2375" />
            </Array>
            <mxPoint as="offset" />
          </mxGeometry>
        </mxCell>
        <mxCell id="1RQeHupGN9nbwRqFfmEi-233" value="" style="endArrow=none;dashed=1;html=1;dashPattern=1 3;strokeWidth=2;rounded=0;strokeColor=#457B9D;fontColor=#1D3557;fillColor=#A8DADC;entryX=0.5;entryY=1;entryDx=0;entryDy=0;" edge="1" parent="1" source="1RQeHupGN9nbwRqFfmEi-234" target="1RQeHupGN9nbwRqFfmEi-232">
          <mxGeometry width="50" height="50" relative="1" as="geometry">
            <mxPoint x="3240" y="3960" as="sourcePoint" />
            <mxPoint x="3240" y="128" as="targetPoint" />
          </mxGeometry>
        </mxCell>
        <mxCell id="1RQeHupGN9nbwRqFfmEi-232" value="" style="html=1;points=[[0,0,0,0,5],[0,1,0,0,-5],[1,0,0,0,5],[1,1,0,0,-5]];perimeter=orthogonalPerimeter;outlineConnect=0;targetShapes=umlLifeline;portConstraint=eastwest;newEdgeStyle={&quot;curved&quot;:0,&quot;rounded&quot;:0};strokeColor=#457B9D;fontColor=#1D3557;fillColor=#A8DADC;" vertex="1" parent="1">
          <mxGeometry x="3235" y="2670" width="10" height="37" as="geometry" />
        </mxCell>
        <mxCell id="1RQeHupGN9nbwRqFfmEi-235" value="" style="endArrow=none;dashed=1;html=1;dashPattern=1 3;strokeWidth=2;rounded=0;strokeColor=#457B9D;fontColor=#1D3557;fillColor=#A8DADC;entryX=0.5;entryY=1;entryDx=0;entryDy=0;" edge="1" parent="1" source="1RQeHupGN9nbwRqFfmEi-237" target="1RQeHupGN9nbwRqFfmEi-234">
          <mxGeometry width="50" height="50" relative="1" as="geometry">
            <mxPoint x="3240" y="3960" as="sourcePoint" />
            <mxPoint x="3240" y="2707" as="targetPoint" />
          </mxGeometry>
        </mxCell>
        <mxCell id="1RQeHupGN9nbwRqFfmEi-234" value="" style="html=1;points=[[0,0,0,0,5],[0,1,0,0,-5],[1,0,0,0,5],[1,1,0,0,-5]];perimeter=orthogonalPerimeter;outlineConnect=0;targetShapes=umlLifeline;portConstraint=eastwest;newEdgeStyle={&quot;curved&quot;:0,&quot;rounded&quot;:0};strokeColor=#457B9D;fontColor=#1D3557;fillColor=#A8DADC;" vertex="1" parent="1">
          <mxGeometry x="3235" y="2820" width="10" height="50" as="geometry" />
        </mxCell>
        <mxCell id="1RQeHupGN9nbwRqFfmEi-236" value="" style="html=1;points=[[0,0,0,0,5],[0,1,0,0,-5],[1,0,0,0,5],[1,1,0,0,-5]];perimeter=orthogonalPerimeter;outlineConnect=0;targetShapes=umlLifeline;portConstraint=eastwest;newEdgeStyle={&quot;curved&quot;:0,&quot;rounded&quot;:0};strokeColor=#457B9D;fontColor=#1D3557;fillColor=#A8DADC;" vertex="1" parent="1">
          <mxGeometry x="2955" y="2890" width="10" height="100" as="geometry" />
        </mxCell>
        <mxCell id="1RQeHupGN9nbwRqFfmEi-216" value="Find All Matches&amp;nbsp;&lt;br&gt;between All Uploaded File Positions&lt;br&gt;(or only those that was marked as &lt;br&gt;Unique for its Department if&lt;br&gt;&amp;nbsp;Department Table - exist)&lt;br&gt;And Positions From Global DB" style="html=1;verticalAlign=bottom;endArrow=block;curved=0;rounded=0;strokeColor=#457B9D;fontColor=#1D3557;fillColor=#A8DADC;" edge="1" parent="1">
          <mxGeometry x="0.4444" y="10" width="80" relative="1" as="geometry">
            <mxPoint x="2960" y="2888" as="sourcePoint" />
            <mxPoint x="2960" y="2988" as="targetPoint" />
            <Array as="points">
              <mxPoint x="3000" y="2888" />
              <mxPoint x="3000" y="2988" />
            </Array>
            <mxPoint as="offset" />
          </mxGeometry>
        </mxCell>
        <mxCell id="1RQeHupGN9nbwRqFfmEi-238" value="" style="endArrow=none;dashed=1;html=1;dashPattern=1 3;strokeWidth=2;rounded=0;strokeColor=#457B9D;fontColor=#1D3557;fillColor=#A8DADC;entryX=0.5;entryY=1;entryDx=0;entryDy=0;" edge="1" parent="1" target="1RQeHupGN9nbwRqFfmEi-237">
          <mxGeometry width="50" height="50" relative="1" as="geometry">
            <mxPoint x="3240" y="3960" as="sourcePoint" />
            <mxPoint x="3240" y="2870" as="targetPoint" />
          </mxGeometry>
        </mxCell>
        <mxCell id="1RQeHupGN9nbwRqFfmEi-237" value="" style="html=1;points=[[0,0,0,0,5],[0,1,0,0,-5],[1,0,0,0,5],[1,1,0,0,-5]];perimeter=orthogonalPerimeter;outlineConnect=0;targetShapes=umlLifeline;portConstraint=eastwest;newEdgeStyle={&quot;curved&quot;:0,&quot;rounded&quot;:0};strokeColor=#457B9D;fontColor=#1D3557;fillColor=#A8DADC;" vertex="1" parent="1">
          <mxGeometry x="3235" y="3030" width="10" height="50" as="geometry" />
        </mxCell>
        <mxCell id="1RQeHupGN9nbwRqFfmEi-239" value="" style="html=1;points=[[0,0,0,0,5],[0,1,0,0,-5],[1,0,0,0,5],[1,1,0,0,-5]];perimeter=orthogonalPerimeter;outlineConnect=0;targetShapes=umlLifeline;portConstraint=eastwest;newEdgeStyle={&quot;curved&quot;:0,&quot;rounded&quot;:0};strokeColor=#457B9D;fontColor=#1D3557;fillColor=#A8DADC;" vertex="1" parent="1">
          <mxGeometry x="2955" y="3100" width="10" height="80" as="geometry" />
        </mxCell>
        <mxCell id="1RQeHupGN9nbwRqFfmEi-220" value="Save received Values as&lt;br&gt;Limits for not unique positions&amp;nbsp;" style="html=1;verticalAlign=bottom;endArrow=block;curved=0;rounded=0;strokeColor=#457B9D;fontColor=#1D3557;fillColor=#A8DADC;" edge="1" parent="1">
          <mxGeometry x="0.125" y="17" width="80" relative="1" as="geometry">
            <mxPoint x="2963" y="3098" as="sourcePoint" />
            <mxPoint x="2963" y="3178" as="targetPoint" />
            <Array as="points">
              <mxPoint x="3003" y="3098" />
              <mxPoint x="3003" y="3178" />
            </Array>
            <mxPoint as="offset" />
          </mxGeometry>
        </mxCell>
        <mxCell id="1RQeHupGN9nbwRqFfmEi-167" value="" style="html=1;points=[[0,0,0,0,5],[0,1,0,0,-5],[1,0,0,0,5],[1,1,0,0,-5]];perimeter=orthogonalPerimeter;outlineConnect=0;targetShapes=umlLifeline;portConstraint=eastwest;newEdgeStyle={&quot;curved&quot;:0,&quot;rounded&quot;:0};strokeColor=#457B9D;fontColor=#1D3557;fillColor=#A8DADC;" vertex="1" parent="1">
          <mxGeometry x="2955" y="3484" width="10" height="28" as="geometry" />
        </mxCell>
        <mxCell id="1RQeHupGN9nbwRqFfmEi-169" value="" style="html=1;points=[[0,0,0,0,5],[0,1,0,0,-5],[1,0,0,0,5],[1,1,0,0,-5]];perimeter=orthogonalPerimeter;outlineConnect=0;targetShapes=umlLifeline;portConstraint=eastwest;newEdgeStyle={&quot;curved&quot;:0,&quot;rounded&quot;:0};strokeColor=#457B9D;fontColor=#1D3557;fillColor=#A8DADC;" vertex="1" parent="1">
          <mxGeometry x="2953" y="3680" width="10" height="41" as="geometry" />
        </mxCell>
      </root>
    </mxGraphModel>
  </diagram>
</mxfile>
